<?xml version="1.0" encoding="UTF-8"?>
<svg id="_Слой_1" data-name="Слой_1" xmlns="http://www.w3.org/2000/svg" version="1.1" viewBox="0 0 595.28 419.53">
  <!-- Generator: Adobe Illustrator 30.4.0, SVG Export Plug-In . SVG Version: 2.1.4 Build 226)  -->
  <defs>
    <style>
      .st0 {
        fill: #fff8ef;
      }

      .st1 {
        fill: #96843b;
      }

      .st2 {
        fill: #2b3d22;
      }
    </style>
  </defs>
  <rect class="st0" x="-1971.2" y="-2.66" width="605.85" height="425.22"/>
  <path class="st1" d="M-1666.92,145.85l-.8-1.83c-.08-.19-.19-.3-.4-.3-.29,0-.27.21-.36.42l-1.15,2.49-1.36,2.49c-1.65,3.01-3.97,5.6-6.63,7.94l-1.19.99c-2.35,1.95-5.36,3.57-8.33,4.66-1.99.73-3.94,1.29-6.11,1.46-3.3.25-7.48.12-10.43-1.11l-3.26-1.35c-.19-.08-.31-.51-.31-.69l.03-2.68.09-.93.5-2.96c.46-1.96,1.3-3.77,2.24-5.59-.36-.49-.88-.77-1.35-1.12l-.68-.51c-.49-.57-1.04-1.02-1.59-1.54-.34-.32-.61-.66-.94-1.02l-.56-.6-1.73-2.26-1.38-2.09-1.11-2.25-.93-2.21-.72-2.63c-.09-.34.03-.73-.05-1.03-.18-.68-.08-1.2-.01-1.88l.09-1.01c.3-1.87,1.07-3.55,2.05-5.2.57-.96,1.11-1.85,1.85-2.71l1.68-1.93c.98-1.13,2.09-2.12,3.3-3.06l.82-.64,1.63-1.13c2.29-1.59,6.07-3.37,8.89-3.9,1.9-.36,3.74-.61,5.69-.43,1.21.11,2.41.25,3.55.61l1.5.46c.4-4.21,1.6-7.89,3.79-11.52l2.15-2.98c1-1.38,2.26-2.51,3.58-3.65l2.63-1.99,2.13-1.25c.65-.38,1.3-.73,2.04-.98,1.08.37,1.96.95,2.93,1.47,1.12.61,2.04,1.34,3.03,2.12,1.82,1.43,3.43,3.05,4.8,4.84l1.73,2.55,1.03,1.78c1.49,3.08,2.42,6.25,2.66,9.67l2.12-.65,3.18-.48h2.68c3.92.39,5.42,1.06,8.77,2.59l1.91,1.07,1.86,1.21,2.93,2.37,2.08,2.03.69.78.94,1.09,1.22,1.68,1.56,2.79c.6,1.08.88,2.28,1.06,3.49l.1.66-.02,2.28c0,1.26-.44,2.4-.85,3.62-.92,2.72-2.37,5.22-4.12,7.57l-1.09,1.27-.92,1.03-2.58,2.4-1.5,1.22c.85,1.58,1.6,3.13,2.01,4.82.3,1.26.64,2.44.73,3.73l.08,1.2v1.95c0,.37.06.77-.24,1.07s-.74.37-1.13.55c-2.2.97-4.45,1.8-6.91,1.93l-2.64.14-3.52-.17c-2.15-.1-6.29-1.52-8.33-2.53-1.48-.73-2.89-1.49-4.16-2.47l-2.56-1.97c-1.72-1.52-3.24-3.09-4.56-4.89l-1.03-1.41-1.96-3.32-.8-1.65ZM-1668.03,126.45c1.14.83,2.04,1.79,3.02,2.79l2.02-1.06c3.35-2.02,4.9-5.41,4.97-9.03.04-2.13.75-4.11,2.2-5.78l1.02-.93,2.03-1.2c.06-.88-.08-1.74-.26-2.61l-.24-1.18c-.38-1.9-.95-3.74-1.87-5.47l-.48-.9c-.87-1.64-1.84-3.14-3.06-4.58-.37-.44-.68-.83-1.09-1.26l-.81-.84c-.33-.34-.66-.63-1.03-.93l-2.28-1.85-.87-.52c-.79-.59-1.62-1.09-2.5-1.55-.6-.32-1.22-.26-1.78.05-.94.52-1.83,1.05-2.71,1.64l-1.13.76-1.43,1.14c-4.07,3.6-7.23,8.19-8.46,13.26-.27,1.11-.45,2.15-.6,3.29-.06.46-.24,1.09-.02,1.53l1.43.81c1.3.74,2.44,2.1,2.98,3.38.37.88.71,1.76.73,2.76.06,1.97.23,3.91,1.15,5.74.69,1.37,2.22,3.31,3.49,4l2.24,1.22,2.1-2.05.73-.55c.11-.08.37-.19.51-.1ZM-1691.91,138.47l2.75-1.21c.84-.37,1.66-.59,2.55-.87,3.59-1.15,7.26-1.88,11.06-2.11,1.38-.08,1.95-1.29,2.29-2.48-.03-.21-.44-.27-.6-.29-1.12-.48-2-1.12-3-1.79-1.88-1.51-3.57-3.24-4.7-5.29-.75-1.35-1.38-2.68-1.82-4.12-.6-1.97-1.06-4.45-1.09-6.45l-.03-2.16c-1.97-.8-3.38-1.17-5.56-1.31-.46-.03-.81-.11-1.3.01l-1.08.04c-1.65.17-3.16.57-4.7,1.05-.97.3-1.82.65-2.72,1.09l-1.81.9c-4.33,2.5-7.88,5.75-10.52,9.74-.62.94-1.19,1.83-1.55,2.88s-.68,2.13-.84,3.25c-.29,2.09.3,4.41,1.01,6.46.47,1.38,1.22,2.61,1.96,3.88,1.76,2.99,4.63,6.33,7.67,8.39.29-.63.66-1.03,1.03-1.5,1.44-1.84,3.15-3.37,5.14-4.75,1.84-1.27,3.73-2.44,5.85-3.38ZM-1632.35,148.14l1.22-.95,1.88-1.66c2.61-2.52,4.66-5.43,6.1-8.62.46-1.02.75-1.94,1.04-2.98.58-2.05.7-4.15.07-6.2-.29-.93-.52-1.77-1-2.64l-.82-1.5-1.08-1.53c-.71-1.01-1.47-1.93-2.36-2.81l-1.92-1.89-1.28-1.08-3.67-2.53-1-.5-1.78-.91c-.89-.45-1.84-.72-2.8-1.02l-.85-.26c-1.39-.42-2.78-.61-4.24-.66-.56-.02-1.1-.14-1.66.02-1.66.06-3.18.51-4.71,1.08-.16.03-.67.13-.66.32.11.87.03,1.66,0,2.51-.02.49,0,.91-.07,1.4-.35,2.78-1.06,5.46-2.38,8-.79,1.51-1.68,2.92-2.98,4.1l-2.1,1.9c-1.16.88-2.38,1.54-3.77,2.12l.53,1.17c.23.76.93,1.2,1.81,1.27l3.31.28c4.27.64,8.97,1.87,12.74,3.75l1.17.51,1.08.63c1.7.87,3.2,1.88,4.71,2.99l1.78,1.48c1.47,1.23,2.69,2.61,3.7,4.21ZM-1671.88,129.73c-1.43-.58-3.13-1.73-4.02-2.7-2.08-2.27-3.01-4.52-3.08-7.5-.04-1.52-.27-3.01-1.07-4.36l-.89-1.23c-.74-.78-1.6-1.38-2.61-1.88l.02,2.62c.48,4.99,1.63,8.79,5.26,12.72.78.85,1.66,1.52,2.61,2.21.85.61,1.76,1.09,2.86,1.39.37-.39.66-.79.93-1.27ZM-1656.05,124.96l.71-1.11.6-1.15c.93-1.79,1.39-3.67,1.73-5.61.29-1.67.44-3.27.31-5-2.48,1.19-3.84,3.14-4.35,5.59-.22,1.06-.13,2.08-.24,3.13-.13,1.2-.54,2.31-1.05,3.41-1.19,2.56-3.44,4.41-6.19,5.67.43.46.7.83.97,1.28,3.12-1.11,5.91-3.66,7.53-6.21ZM-1666.98,138.78l-.02-.7c-.02-.79-.21-1.51-.5-2.26l-.67-1.73c-.38-.98-.45-1.99-.27-3.03l.41-2.4c.07-.4.21-.81-.14-1.21-.96.55-1.71,1.24-2.34,2.05l-.72.94c-1.15,1.49-1.93,3.14-2.22,4.96-.39,2.47.5,5.16,2.69,6.68.58.4,1.31.59,1.99.72,1-.88,1.83-2.86,1.8-4.03ZM-1667.56,142.87c1.68-.54,3.18-1.51,3.92-3,.93-1.87.94-3.99.33-5.93l-.64-1.51c-.79-1.51-1.79-2.88-3.24-4.08l-.4,2.13c-.34,1.26-.23,2.47.27,3.67l.76,1.82c.77,2.1.48,4.29-.71,6.2-.14.22-.27.4-.29.7ZM-1638.34,163.46c2.97-.36,5.89-.91,8.43-2.37.14-2.21-.04-4.32-.6-6.44-.09-.76-.36-1.43-.62-2.15-.39-1.08-.78-2.16-1.49-3.14-1.51.91-2.88,1.86-4.48,2.44l-2.51.92c-1.78.65-4.39,1.11-6.27.88-4.12-.48-7.11-2.85-9.39-5.85l-.71-.94-.91-1.5c-.7-1.37-1.41-2.69-1.85-4.16l-.46-1.55c-.56-1.89-.83-3.6-2.93-4.84l.08,1.27c.09,1.47-.19,3.14-.93,4.45s-2.14,2.29-3.68,2.87c-.23.09-.38.21-.26.48l.59,1.33.77,1.63c1.52,3.21,3.76,6.05,6.35,8.65l.97.9c1.13,1.04,2.35,1.91,3.65,2.76,1.23.81,2.43,1.47,3.8,2.07s2.74,1.24,4.28,1.54l3.2.62.93.09,1.36.09c.44.03.96.04,1.42,0,.43-.03.82-.15,1.26-.06ZM-1706.36,161.08c1.34.79,2.64,1.31,4.09,1.65,1.31.31,2.58.58,3.93.7l.95.08h3.06c1.66-.01,3.18-.43,4.79-.8,1.26-.29,2.38-.77,3.55-1.26,7.95-3.34,13.97-10.46,16.79-17.83-.93-.27-1.74-.59-2.41-1.14s-1.31-1.07-1.69-1.81c-.99-1.79-1.29-3.74-.96-5.73-.34,0-.43.32-.61.47-.7.58-1.53,1.96-1.78,2.78l-.75,2.51c-.62,2.08-1.69,3.97-2.84,5.86l-2.1,2.65-1.31,1.23c-1.78,1.67-4.34,2.85-6.93,3.17-.72.09-1.34.04-2.06,0-1.51-.09-2.85-.46-4.25-.93-1.88-.63-3.6-1.4-5.25-2.43l-1.54-.97c-1.6,2.64-2.38,5.87-2.66,8.8v3ZM-1697.21,151.78c1.45.64,2.92.86,4.44,1.04.77.09,1.41.05,2.16,0,1.76-.13,3.25-.7,4.67-1.62,4.24-2.74,7-7.72,8.19-12.23.38-1.44,1.05-2.66,2.01-3.94l-3.72.47c-3.01.38-5.79,1.17-8.6,2.17-1.6.57-3.05,1.2-4.52,1.99l-1.88,1.01c-3.78,2.33-6.46,4.17-8.79,7.95.99.66,1.89,1.34,2.97,1.82l3.07,1.36ZM-1637.5,151.12c1.58-.68,3.03-1.47,4.44-2.49-.66-1.2-1.59-2.21-2.57-3.22-.92-.95-1.88-1.76-2.99-2.52-.8-.75-1.78-1.24-2.7-1.84-.64-.42-1.27-.76-1.97-1.12l-1.9-.97-3.34-1.36c-3.62-1.48-7.83-2.2-11.83-2.51l1.08,1.69.68,1.98c.57,2,1.23,3.94,2.24,5.79,1.07,1.96,2.37,3.71,4.05,5.27.71.66,1.54,1.13,2.38,1.67,1.15.75,2.52,1.18,3.96,1.28.8.21,1.56.12,2.36.01l2.03-.26c1.46-.31,2.75-.83,4.09-1.41Z"/>
  <path class="st2" d="M-1859.07,212.14c.47-13.11,9.72-22.9,21.76-23.23,5.39-.2,10.58,1.66,15.24,5.32,3.26,2.6,2.93,5.59.2,6.92-.73.4-1.4.27-1.6-.53-1.8-7.52-5.72-11.12-13.44-11.12-9.38,0-17.71,9.32-17.71,24.09,0,12.65,6.99,20.97,17.77,22.43,6.39.87,13.05-2.13,16.84-7.99.53-.8.87-1.13,1.13-1.07.2.07.4.4-.27,1.26-4.13,6.32-10.85,9.78-18.04,9.25-13.18-.93-22.23-11.12-21.9-25.36Z"/>
  <path class="st2" d="M-1722.69,192.91c0,.27-.4.27-.4,0,0-2-2.6-2.79-4.53-2.79h-10.72v42.93c0,1.73,1.33,2.86,3.33,2.86.27,0,.27.4,0,.4h-10.32c-.27,0-.27-.4,0-.4,2,0,3.33-1.13,3.33-2.86v-42.93h-11.45c-1.93,0-4.53.8-4.53,2.79,0,.27-.4.27-.4,0v-3.26l1.53.07h34.15v3.19Z"/>
  <path class="st2" d="M-1625.98,233.11v3.19h-30.75c-.27,0-.27-.4,0-.4,2,0,3.06-2.6,3.06-4.53v-38.4c0-1.73-1.33-2.86-3.33-2.86-.27,0-.27-.4,0-.4h10.32c.27,0,.27.4,0,.4-2,0-3.33,1.13-3.33,2.86v42.93h19.1c1.93,0,4.53-.8,4.53-2.79,0-.27.4-.27.4,0Z"/>
  <path class="st2" d="M-1577.86,192.91c0,.27-.4.27-.4,0,0-2-2.6-2.79-4.53-2.79h-20.43v18.9h10.45c1.93,0,4.53-.8,4.53-2.8,0-.27.4-.27.4,0v5.99c0,.27-.4.27-.4,0,0-2-2.6-2.79-4.53-2.79h-10.45v26.49h20.43c1.93,0,4.53-.8,4.53-2.79,0-.27.4-.27.4,0v3.19h-32.08c-.27,0-.27-.4,0-.4,2,0,3.06-2.6,3.06-4.53v-36.74c0-1.93-1.06-4.53-3.06-4.53-.27,0-.27-.4,0-.4h32.08v3.19Z"/>
  <path class="st2" d="M-1524.14,190.11c-2,0-4.79,1-6.12,2.26l-12.31,19.57v21.1c0,1.73,1.33,2.86,3.33,2.86.27,0,.27.4,0,.4h-10.32c-.27,0-.27-.4,0-.4,2,0,3.33-1.13,3.33-2.86v-20.9l-12.31-19.97c-1.2-1.4-2.73-2.06-4.59-2.06-.27,0-.27-.4,0-.4h10.78c.27,0,.27.4,0,.4-2,0-2.66.47-1.8,2l11.25,18.5,11.38-18.44c1.13-1.8-.27-2.06-2.26-2.06-.27,0-.27-.4,0-.4h9.65c.27,0,.27.4,0,.4Z"/>
  <path class="st2" d="M-1474.33,236.46c-2,0-4.4-.66-5.26-2.46l-17.24-43.73h-5.73c-.26,0-.26.4,0,.4,1.74,0,2.67,1.2,3.13,2.66-5.26,13.65-10.51,27.29-15.77,40.94-.25.64-.49,1.28-.74,1.92-1.99,5.17-6.24,9.12-11.53,10.78-.89.29-1.34.44-1.34.48.01.02.18,0,.52-.07,5.95-1.23,10.85-5.43,13.08-11.08.27-.68.54-1.35.81-2.03.81-2.12,2.21-5.73,3.49-9.01,1.42-1.58,7.7-7.89,16.01-6.89,1.93.23,3.81.86,5.6,1.83l.8,1.96c1.64,4.01,3.63,8.57,5.12,12.32.27,1.46-1.19,1.99-3.12,1.99-.27,0-.27.4,0,.4h12.18c.26,0,.26-.4,0-.4ZM-1510.45,224.05c.52-1.35,1.01-2.59,1.4-3.6l.24-.63.02-.05c.02-.05.04-.12.08-.2l.51-1.32c2.08-5.42,8.85-22.94,9.1-23.59,2.94,7.51,6.53,17.24,9.51,24.83-1.69-.85-3.45-1.4-5.26-1.62-7.42-.89-13.23,3.85-15.6,6.18Z"/>
  <path class="st2" d="M-1665.77,236.58c-2,0-4.39-.67-5.26-2.47l-17.24-43.72h-5.72c-.27,0-.27.4,0,.4,1.73,0,2.66,1.19,3.13,2.66l-15.78,40.93c-.86,1.67-3.26,2.2-5.19,2.2-.27,0-.27.4,0,.4h8.92c.26,0,.26-.4,0-.4-2,0-3.4-.6-2.93-2.2,1.23-3.2,2.46-6.4,3.69-9.59,1.36-1.52,7.68-7.93,16.04-6.93,1.84.22,3.63.81,5.34,1.7l.36.91h-.03l.16.4,5.46,13.71c.26,1.47-1.2,2-3.13,2-.27,0-.27.4,0,.4h12.18c.26,0,.26-.4,0-.4ZM-1686.05,217.36c-7.44-.9-13.28,3.89-15.63,6.21.73-1.88,1.47-3.76,2.2-5.65h.01l8.94-23.15,9.48,24.07c-1.61-.77-3.29-1.28-5.01-1.49Z"/>
  <path class="st2" d="M-1762.43,235.9c-2,0-4.39-.67-5.26-2.47l-17.24-43.72h-5.72c-.27,0-.27.4,0,.4,1.73,0,2.66,1.19,3.13,2.66l-15.78,40.93c-.86,1.67-3.26,2.2-5.19,2.2-.27,0-.27.4,0,.4h8.92c.26,0,.26-.4,0-.4-2,0-3.4-.6-2.93-2.2,1.23-3.2,2.46-6.4,3.69-9.59,1.36-1.52,7.68-7.93,16.04-6.93,1.84.22,3.63.81,5.34,1.7l.36.91h-.03l.16.4,5.46,13.71c.26,1.47-1.2,2-3.13,2-.27,0-.27.4,0,.4h12.18c.26,0,.26-.4,0-.4ZM-1782.71,216.69c-7.44-.9-13.28,3.89-15.63,6.21.73-1.88,1.47-3.76,2.2-5.65h.01l8.94-23.15,9.48,24.07c-1.61-.77-3.29-1.28-5.01-1.49Z"/>
  <path class="st2" d="M-1826.62,258.74h1.23v4.03l4.43-4.03h1.71l-4.85,4.38,5.23,5.19h-1.74l-4.4-4.42-.39.34v4.08h-1.23v-9.56Z"/>
  <path class="st2" d="M-1805.07,258.74v9.56h-1.21v-1.64c-.52.63-1.09,1.1-1.74,1.42-.64.32-1.34.47-2.11.47-1.35,0-2.51-.49-3.47-1.47-.96-.98-1.44-2.17-1.44-3.58s.48-2.55,1.45-3.53,2.13-1.47,3.49-1.47c.79,0,1.5.17,2.13.5.63.33,1.19.83,1.67,1.5v-1.76h1.21ZM-1809.98,259.68c-.69,0-1.32.17-1.9.5s-1.04.81-1.38,1.42-.51,1.25-.51,1.93.17,1.32.52,1.93c.35.62.81,1.09,1.39,1.44s1.21.51,1.88.51,1.31-.17,1.91-.51c.6-.34,1.07-.8,1.39-1.38.32-.58.49-1.23.49-1.96,0-1.11-.36-2.03-1.09-2.77s-1.63-1.12-2.69-1.12Z"/>
  <path class="st2" d="M-1791.56,255.05h1.23v5.13c.77-1.09,1.87-1.64,3.31-1.64s2.55.47,3.49,1.42c.94.94,1.41,2.15,1.41,3.63s-.47,2.66-1.42,3.59-2.1,1.41-3.45,1.41c-1.48,0-2.59-.58-3.35-1.72v4.93h-1.23v-4.93c-.74,1.16-1.87,1.73-3.38,1.73-1.32,0-2.46-.47-3.41-1.41-.95-.94-1.43-2.14-1.43-3.6s.47-2.69,1.41-3.63c.94-.94,2.1-1.42,3.49-1.42,1.47,0,2.58.55,3.31,1.64v-5.13ZM-1798.53,263.53c0,1.07.34,1.98,1.03,2.74s1.61,1.14,2.76,1.14c.4,0,.82-.1,1.28-.3.46-.2.82-.46,1.1-.76.28-.31.49-.66.63-1.07s.21-1,.21-1.78c0-1.24-.32-2.19-.96-2.85-.64-.66-1.42-.99-2.34-.99-1.02,0-1.9.37-2.62,1.1-.73.73-1.09,1.66-1.09,2.77ZM-1790.36,263.75c0,1.14.32,2.04.97,2.69.65.65,1.39.98,2.24.98,1.15,0,2.06-.38,2.76-1.14.69-.76,1.04-1.68,1.04-2.75s-.36-2.03-1.09-2.76-1.6-1.1-2.62-1.1c-.92,0-1.7.33-2.33.98-.64.65-.96,1.69-.96,3.11Z"/>
  <path class="st2" d="M-1768.79,265.13l1.04.54c-.34.67-.73,1.21-1.18,1.62s-.95.72-1.5.94c-.56.21-1.19.32-1.89.32-1.56,0-2.78-.51-3.66-1.53-.88-1.02-1.32-2.18-1.32-3.47,0-1.21.37-2.29,1.12-3.24.95-1.21,2.21-1.81,3.79-1.81s2.93.62,3.9,1.85c.69.87,1.04,1.96,1.06,3.27h-8.61c.02,1.11.38,2.02,1.06,2.73.69.71,1.54,1.07,2.54,1.07.49,0,.96-.08,1.42-.25s.85-.39,1.18-.67c.32-.28.67-.73,1.05-1.36ZM-1768.79,262.55c-.16-.66-.4-1.18-.72-1.57-.31-.39-.73-.71-1.25-.95s-1.06-.36-1.63-.36c-.94,0-1.75.3-2.42.91-.49.44-.87,1.1-1.12,1.98h7.13Z"/>
  <path class="st2" d="M-1749.66,258.49c1.47,0,2.7.53,3.66,1.6.88.97,1.32,2.12,1.32,3.45s-.46,2.5-1.4,3.5c-.93,1-2.12,1.5-3.59,1.5s-2.67-.5-3.6-1.5c-.93-1-1.4-2.17-1.4-3.5s.44-2.47,1.32-3.45c.97-1.07,2.19-1.61,3.67-1.61ZM-1749.67,259.7c-1.02,0-1.9.38-2.64,1.13-.74.76-1.1,1.67-1.1,2.74,0,.69.17,1.34.5,1.93.33.6.79,1.06,1.36,1.38.57.32,1.2.49,1.88.49s1.31-.16,1.88-.49c.57-.33,1.02-.79,1.36-1.38.34-.6.5-1.24.5-1.93,0-1.07-.37-1.99-1.11-2.74s-1.62-1.13-2.63-1.13Z"/>
  <path class="st2" d="M-1730.13,260.72l-.98.61c-.84-1.12-1.99-1.68-3.45-1.68-1.17,0-2.13.38-2.9,1.12s-1.15,1.66-1.15,2.73c0,.7.18,1.35.53,1.97.35.62.84,1.09,1.46,1.43.62.34,1.31.51,2.08.51,1.4,0,2.55-.56,3.44-1.68l.98.64c-.46.69-1.07,1.22-1.84,1.6-.77.38-1.65.57-2.63.57-1.51,0-2.77-.48-3.76-1.44s-1.49-2.13-1.49-3.51c0-.93.23-1.79.7-2.58.47-.79,1.11-1.41,1.92-1.86s1.73-.67,2.73-.67c.63,0,1.24.1,1.83.29.59.19,1.09.45,1.5.76s.76.71,1.05,1.19Z"/>
  <path class="st2" d="M-1720.25,258.49c1.47,0,2.69.53,3.66,1.6.88.97,1.32,2.12,1.32,3.45s-.46,2.5-1.39,3.5c-.93,1-2.13,1.5-3.59,1.5s-2.67-.5-3.6-1.5c-.93-1-1.39-2.17-1.39-3.5s.44-2.47,1.32-3.45c.97-1.07,2.19-1.61,3.67-1.61ZM-1720.26,259.7c-1.02,0-1.9.38-2.64,1.13-.73.76-1.1,1.67-1.1,2.74,0,.69.17,1.34.5,1.93.34.6.79,1.06,1.36,1.38.57.32,1.2.49,1.88.49s1.31-.16,1.88-.49c.57-.33,1.02-.79,1.36-1.38.33-.6.5-1.24.5-1.93,0-1.07-.37-1.99-1.11-2.74-.74-.76-1.62-1.13-2.63-1.13Z"/>
  <path class="st2" d="M-1708.41,262.75h.64c.41,0,.79-.13,1.13-.4.34-.27.51-.65.51-1.15,0-.43-.14-.79-.41-1.1-.27-.31-.7-.46-1.26-.46-.66,0-1.32.26-1.99.77l-.7-.85c.86-.72,1.78-1.08,2.74-1.08.8,0,1.46.24,2,.71.54.47.81,1.08.81,1.83,0,.99-.44,1.67-1.32,2.02,1.15.48,1.72,1.32,1.72,2.52,0,.76-.27,1.45-.8,2.06-.54.61-1.34.92-2.4.92-1.31,0-2.36-.42-3.16-1.27l.78-.88c.59.67,1.35,1,2.27,1,.62,0,1.11-.17,1.46-.5.36-.33.53-.77.53-1.32s-.18-.96-.54-1.28-.78-.48-1.27-.48h-.76v-1.06Z"/>
  <path class="st2" d="M-1692.61,263.69h-5.56v4.61h-1.23v-9.56h1.23v3.8h5.56v-3.8h1.23v9.56h-1.23v-4.61Z"/>
  <path class="st2" d="M-1676.12,258.74v9.56h-1.21v-1.64c-.52.63-1.09,1.1-1.74,1.42-.64.32-1.34.47-2.11.47-1.35,0-2.51-.49-3.47-1.47-.96-.98-1.44-2.17-1.44-3.58s.48-2.55,1.45-3.53,2.13-1.47,3.49-1.47c.79,0,1.5.17,2.13.5.63.33,1.19.83,1.67,1.5v-1.76h1.21ZM-1681.04,259.68c-.69,0-1.32.17-1.9.5s-1.04.81-1.38,1.42-.51,1.25-.51,1.93.17,1.32.52,1.93c.35.62.81,1.09,1.39,1.44s1.21.51,1.88.51,1.31-.17,1.91-.51c.6-.34,1.07-.8,1.39-1.38.32-.58.49-1.23.49-1.96,0-1.11-.36-2.03-1.09-2.77s-1.63-1.12-2.69-1.12Z"/>
  <path class="st2" d="M-1663.57,263.69h-5.56v4.61h-1.23v-9.56h1.23v3.8h5.56v-3.8h1.23v9.56h-1.23v-4.61Z"/>
  <path class="st2" d="M-1649.82,263.69h-5.56v4.61h-1.23v-9.56h1.23v3.8h5.56v-3.8h1.23v9.56h-1.23v-4.61Z"/>
  <path class="st2" d="M-1638.33,258.49c1.47,0,2.7.53,3.66,1.6.88.97,1.32,2.12,1.32,3.45s-.46,2.5-1.4,3.5c-.93,1-2.12,1.5-3.59,1.5s-2.67-.5-3.6-1.5c-.93-1-1.4-2.17-1.4-3.5s.44-2.47,1.32-3.45c.97-1.07,2.19-1.61,3.67-1.61ZM-1638.34,259.7c-1.02,0-1.9.38-2.64,1.13-.74.76-1.1,1.67-1.1,2.74,0,.69.17,1.34.5,1.93.33.6.79,1.06,1.36,1.38.57.32,1.2.49,1.88.49s1.31-.16,1.88-.49c.57-.33,1.02-.79,1.36-1.38.34-.6.5-1.24.5-1.93,0-1.07-.37-1.99-1.11-2.74s-1.62-1.13-2.63-1.13Z"/>
  <path class="st2" d="M-1626.86,259.82v8.48h-1.23v-9.56h4.83v1.08h-3.6Z"/>
  <path class="st2" d="M-1614.08,258.49c1.47,0,2.7.53,3.66,1.6.88.97,1.32,2.12,1.32,3.45s-.46,2.5-1.4,3.5c-.93,1-2.12,1.5-3.59,1.5s-2.67-.5-3.6-1.5c-.93-1-1.4-2.17-1.4-3.5s.44-2.47,1.32-3.45c.97-1.07,2.19-1.61,3.67-1.61ZM-1614.08,259.7c-1.02,0-1.9.38-2.64,1.13-.74.76-1.1,1.67-1.1,2.74,0,.69.17,1.34.5,1.93.33.6.79,1.06,1.36,1.38.57.32,1.2.49,1.88.49s1.31-.16,1.88-.49c.57-.33,1.02-.79,1.36-1.38.34-.6.5-1.24.5-1.93,0-1.07-.37-1.99-1.11-2.74s-1.62-1.13-2.63-1.13Z"/>
  <path class="st2" d="M-1595.86,258.74h8.03v9.56h-1.23v-8.4h-5.56v8.4h-1.23v-9.56Z"/>
  <path class="st2" d="M-1580.87,258.74v7.08l7.02-7.08h.1v9.56h-1.23v-7.01l-6.97,7.01h-.15v-9.56h1.23Z"/>
  <path class="st2" d="M-1569.09,258.74h6.29v1.06h-2.53v8.5h-1.23v-8.5h-2.53v-1.06Z"/>
  <path class="st2" d="M-1548.62,258.74v9.56h-1.21v-1.64c-.52.63-1.09,1.1-1.74,1.42-.64.32-1.34.47-2.1.47-1.35,0-2.51-.49-3.47-1.47-.96-.98-1.44-2.17-1.44-3.58s.48-2.55,1.45-3.53,2.13-1.47,3.49-1.47c.79,0,1.49.17,2.13.5.63.33,1.19.83,1.67,1.5v-1.76h1.21ZM-1553.53,259.68c-.68,0-1.32.17-1.89.5-.58.34-1.04.81-1.38,1.42-.34.61-.51,1.25-.51,1.93s.17,1.32.52,1.93c.35.62.81,1.09,1.39,1.44s1.21.51,1.88.51,1.31-.17,1.91-.51c.6-.34,1.07-.8,1.39-1.38.33-.58.49-1.23.49-1.96,0-1.11-.37-2.03-1.09-2.77s-1.62-1.12-2.69-1.12Z"/>
  <path class="st2" d="M-1536.07,263.69h-5.56v4.61h-1.23v-9.56h1.23v3.8h5.56v-3.8h1.23v9.56h-1.23v-4.61Z"/>
  <path class="st2" d="M-1527.87,258.74v7.08l7.02-7.08h.1v9.56h-1.23v-7.01l-6.97,7.01h-.15v-9.56h1.23Z"/>
  <path class="st2" d="M-1510.99,264.02h-.88l-2.73,4.28h-1.33l2.88-4.4c-.71-.09-1.3-.36-1.74-.81-.45-.45-.67-1.02-.67-1.69,0-.84.26-1.5.77-1.96.51-.46,1.19-.69,2.02-.69h2.91v9.56h-1.23v-4.28ZM-1510.99,259.8h-.81c-.79,0-1.31.05-1.58.15s-.48.27-.64.51c-.16.24-.24.57-.24.98s.1.72.31.97c.21.26.43.41.69.47s.74.09,1.47.09h.81v-3.17Z"/>
  <rect class="st2" x="-1315.91" y="-2.82" width="605.85" height="425.22"/>
  <path class="st1" d="M-1011.63,145.69l-.8-1.83c-.08-.19-.19-.3-.4-.3-.29,0-.27.21-.36.42l-1.15,2.49-1.36,2.49c-1.65,3.01-3.97,5.6-6.63,7.94l-1.19.99c-2.35,1.95-5.36,3.57-8.33,4.66-1.99.73-3.94,1.29-6.11,1.46-3.3.25-7.48.12-10.43-1.11l-3.26-1.35c-.19-.08-.31-.51-.31-.69l.03-2.68.09-.93.5-2.96c.46-1.96,1.3-3.77,2.24-5.59-.36-.49-.88-.77-1.35-1.12l-.68-.51c-.49-.57-1.04-1.02-1.59-1.54-.34-.32-.61-.66-.94-1.02l-.56-.6-1.73-2.26-1.38-2.09-1.11-2.25-.93-2.21-.72-2.63c-.09-.34.03-.73-.05-1.03-.18-.68-.08-1.2-.01-1.88l.09-1.01c.3-1.87,1.07-3.55,2.05-5.2.57-.96,1.11-1.85,1.85-2.71l1.68-1.93c.98-1.13,2.09-2.12,3.3-3.06l.82-.64,1.63-1.13c2.29-1.59,6.07-3.37,8.89-3.9,1.9-.36,3.74-.61,5.69-.43,1.21.11,2.41.25,3.55.61l1.5.46c.4-4.21,1.6-7.89,3.79-11.52l2.15-2.98c1-1.38,2.26-2.51,3.58-3.65l2.63-1.99,2.13-1.25c.65-.38,1.3-.73,2.04-.98,1.08.37,1.96.95,2.93,1.47,1.12.61,2.04,1.34,3.03,2.12,1.82,1.43,3.43,3.05,4.8,4.84l1.73,2.55,1.03,1.78c1.49,3.08,2.42,6.25,2.66,9.67l2.12-.65,3.18-.48h2.68c3.92.39,5.42,1.06,8.77,2.59l1.91,1.07,1.86,1.21,2.93,2.37,2.08,2.03.69.78.94,1.09,1.22,1.68,1.56,2.79c.6,1.08.88,2.28,1.06,3.49l.1.66-.02,2.28c0,1.26-.44,2.4-.85,3.62-.92,2.72-2.37,5.22-4.12,7.57l-1.09,1.27-.92,1.03-2.58,2.4-1.5,1.22c.85,1.58,1.6,3.13,2.01,4.82.3,1.26.64,2.44.73,3.73l.08,1.2v1.95c0,.37.06.77-.24,1.07s-.74.37-1.13.55c-2.2.97-4.45,1.8-6.91,1.93l-2.64.14-3.52-.17c-2.15-.1-6.29-1.52-8.33-2.53-1.48-.73-2.89-1.49-4.16-2.47l-2.56-1.97c-1.72-1.52-3.24-3.09-4.56-4.89l-1.03-1.41-1.96-3.32-.8-1.65ZM-1012.74,126.29c1.14.83,2.04,1.79,3.02,2.79l2.02-1.06c3.35-2.02,4.9-5.41,4.97-9.03.04-2.13.75-4.11,2.2-5.78l1.02-.93,2.03-1.2c.06-.88-.08-1.74-.26-2.61l-.24-1.18c-.38-1.9-.95-3.74-1.87-5.47l-.48-.9c-.87-1.64-1.84-3.14-3.06-4.58-.37-.44-.68-.83-1.09-1.26l-.81-.84c-.33-.34-.66-.63-1.03-.93l-2.28-1.85-.87-.52c-.79-.59-1.62-1.09-2.5-1.55-.6-.32-1.22-.26-1.78.05-.94.52-1.83,1.05-2.71,1.64l-1.13.76-1.43,1.14c-4.07,3.6-7.23,8.19-8.46,13.26-.27,1.11-.45,2.15-.6,3.29-.06.46-.24,1.09-.02,1.53l1.43.81c1.3.74,2.44,2.1,2.98,3.38.37.88.71,1.76.73,2.76.06,1.97.23,3.91,1.15,5.74.69,1.37,2.22,3.31,3.49,4l2.24,1.22,2.1-2.05.73-.55c.11-.08.37-.19.51-.1ZM-1036.62,138.31l2.75-1.21c.84-.37,1.66-.59,2.55-.87,3.59-1.15,7.26-1.88,11.06-2.11,1.38-.08,1.95-1.29,2.29-2.48-.03-.21-.44-.27-.6-.29-1.12-.48-2-1.12-3-1.79-1.88-1.51-3.57-3.24-4.7-5.29-.75-1.35-1.38-2.68-1.82-4.12-.6-1.97-1.06-4.45-1.09-6.45l-.03-2.16c-1.97-.8-3.38-1.17-5.56-1.31-.46-.03-.81-.11-1.3.01l-1.08.04c-1.65.17-3.16.57-4.7,1.05-.97.3-1.82.65-2.72,1.09l-1.81.9c-4.33,2.5-7.88,5.75-10.52,9.74-.62.94-1.19,1.83-1.55,2.88s-.68,2.13-.84,3.25c-.29,2.09.3,4.41,1.01,6.46.47,1.38,1.22,2.61,1.96,3.88,1.76,2.99,4.63,6.33,7.67,8.39.29-.63.66-1.03,1.03-1.5,1.44-1.84,3.15-3.37,5.14-4.75,1.84-1.27,3.73-2.44,5.85-3.38ZM-977.06,147.98l1.22-.95,1.88-1.66c2.61-2.52,4.66-5.43,6.1-8.62.46-1.02.75-1.94,1.04-2.98.58-2.05.7-4.15.07-6.2-.29-.93-.52-1.77-1-2.64l-.82-1.5-1.08-1.53c-.71-1.01-1.47-1.93-2.36-2.81l-1.92-1.89-1.28-1.08-3.67-2.53-1-.5-1.78-.91c-.89-.45-1.84-.72-2.8-1.02l-.85-.26c-1.39-.42-2.78-.61-4.24-.66-.56-.02-1.1-.14-1.66.02-1.66.06-3.18.51-4.71,1.08-.16.03-.67.13-.66.32.11.87.03,1.66,0,2.51-.02.49,0,.91-.07,1.4-.35,2.78-1.06,5.46-2.38,8-.79,1.51-1.68,2.92-2.98,4.1l-2.1,1.9c-1.16.88-2.38,1.54-3.77,2.12l.53,1.17c.23.76.93,1.2,1.81,1.27l3.31.28c4.27.64,8.97,1.87,12.74,3.75l1.17.51,1.08.63c1.7.87,3.2,1.88,4.71,2.99l1.78,1.48c1.47,1.23,2.69,2.61,3.7,4.21ZM-1016.59,129.57c-1.43-.58-3.13-1.73-4.02-2.7-2.08-2.27-3.01-4.52-3.08-7.5-.04-1.52-.27-3.01-1.07-4.36l-.89-1.23c-.74-.78-1.6-1.38-2.61-1.88l.02,2.62c.48,4.99,1.63,8.79,5.26,12.72.78.85,1.66,1.52,2.61,2.21.85.61,1.76,1.09,2.86,1.39.37-.39.66-.79.93-1.27ZM-1000.76,124.8l.71-1.11.6-1.15c.93-1.79,1.39-3.67,1.73-5.61.29-1.67.44-3.27.31-5-2.48,1.19-3.84,3.14-4.35,5.59-.22,1.06-.13,2.08-.24,3.13-.13,1.2-.54,2.31-1.05,3.41-1.19,2.56-3.44,4.41-6.19,5.67.43.46.7.83.97,1.28,3.12-1.11,5.91-3.66,7.53-6.21ZM-1011.69,138.62l-.02-.7c-.02-.79-.21-1.51-.5-2.26l-.67-1.73c-.38-.98-.45-1.99-.27-3.03l.41-2.4c.07-.4.21-.81-.14-1.21-.96.55-1.71,1.24-2.34,2.05l-.72.94c-1.15,1.49-1.93,3.14-2.22,4.96-.39,2.47.5,5.16,2.69,6.68.58.4,1.31.59,1.99.72,1-.88,1.83-2.86,1.8-4.03ZM-1012.27,142.71c1.68-.54,3.18-1.51,3.92-3,.93-1.87.94-3.99.33-5.93l-.64-1.51c-.79-1.51-1.79-2.88-3.24-4.08l-.4,2.13c-.34,1.26-.23,2.47.27,3.67l.76,1.82c.77,2.1.48,4.29-.71,6.2-.14.22-.27.4-.29.7ZM-983.05,163.3c2.97-.36,5.89-.91,8.43-2.37.14-2.21-.04-4.32-.6-6.44-.09-.76-.36-1.43-.62-2.15-.39-1.08-.78-2.16-1.49-3.14-1.51.91-2.88,1.86-4.48,2.44l-2.51.92c-1.78.65-4.39,1.11-6.27.88-4.12-.48-7.11-2.85-9.39-5.85l-.71-.94-.91-1.5c-.7-1.37-1.41-2.69-1.85-4.16l-.46-1.55c-.56-1.89-.83-3.6-2.93-4.84l.08,1.27c.09,1.47-.19,3.14-.93,4.45s-2.14,2.29-3.68,2.87c-.23.09-.38.21-.26.48l.59,1.33.77,1.63c1.52,3.21,3.76,6.05,6.35,8.65l.97.9c1.13,1.04,2.35,1.91,3.65,2.76,1.23.81,2.43,1.47,3.8,2.07s2.74,1.24,4.28,1.54l3.2.62.93.09,1.36.09c.44.03.96.04,1.42,0,.43-.03.82-.15,1.26-.06ZM-1051.07,160.92c1.34.79,2.64,1.31,4.09,1.65,1.31.31,2.58.58,3.93.7l.95.08h3.06c1.66-.01,3.18-.43,4.79-.8,1.26-.29,2.38-.77,3.55-1.26,7.95-3.34,13.97-10.46,16.79-17.83-.93-.27-1.74-.59-2.41-1.14s-1.31-1.07-1.69-1.81c-.99-1.79-1.29-3.74-.96-5.73-.34,0-.43.32-.61.47-.7.58-1.53,1.96-1.78,2.78l-.75,2.51c-.62,2.08-1.69,3.97-2.84,5.86l-2.1,2.65-1.31,1.23c-1.78,1.67-4.34,2.85-6.93,3.17-.72.09-1.34.04-2.06,0-1.51-.09-2.85-.46-4.25-.93-1.88-.63-3.6-1.4-5.25-2.43l-1.54-.97c-1.6,2.64-2.38,5.87-2.66,8.8v3ZM-1041.92,151.62c1.45.64,2.92.86,4.44,1.04.77.09,1.41.05,2.16,0,1.76-.13,3.25-.7,4.67-1.62,4.24-2.74,7-7.72,8.19-12.23.38-1.44,1.05-2.66,2.01-3.94l-3.72.47c-3.01.38-5.79,1.17-8.6,2.17-1.6.57-3.05,1.2-4.52,1.99l-1.88,1.01c-3.78,2.33-6.46,4.17-8.79,7.95.99.66,1.89,1.34,2.97,1.82l3.07,1.36ZM-982.21,150.96c1.58-.68,3.03-1.47,4.44-2.49-.66-1.2-1.59-2.21-2.57-3.22-.92-.95-1.88-1.76-2.99-2.52-.8-.75-1.78-1.24-2.7-1.84-.64-.42-1.27-.76-1.97-1.12l-1.9-.97-3.34-1.36c-3.62-1.48-7.83-2.2-11.83-2.51l1.08,1.69.68,1.98c.57,2,1.23,3.94,2.24,5.79,1.07,1.96,2.37,3.71,4.05,5.27.71.66,1.54,1.13,2.38,1.67,1.15.75,2.52,1.18,3.96,1.28.8.21,1.56.12,2.36.01l2.03-.26c1.46-.31,2.75-.83,4.09-1.41Z"/>
  <path class="st0" d="M-1203.78,211.98c.47-13.11,9.72-22.9,21.76-23.23,5.39-.2,10.58,1.66,15.24,5.32,3.26,2.6,2.93,5.59.2,6.92-.73.4-1.4.27-1.6-.53-1.8-7.52-5.72-11.12-13.44-11.12-9.38,0-17.71,9.32-17.71,24.09,0,12.65,6.99,20.97,17.77,22.43,6.39.87,13.05-2.13,16.84-7.99.53-.8.87-1.13,1.13-1.07.2.07.4.4-.27,1.26-4.13,6.32-10.85,9.78-18.04,9.25-13.18-.93-22.23-11.12-21.9-25.36Z"/>
  <path class="st0" d="M-1067.4,192.75c0,.27-.4.27-.4,0,0-2-2.6-2.79-4.53-2.79h-10.72v42.93c0,1.73,1.33,2.86,3.33,2.86.27,0,.27.4,0,.4h-10.32c-.27,0-.27-.4,0-.4,2,0,3.33-1.13,3.33-2.86v-42.93h-11.45c-1.93,0-4.53.8-4.53,2.79,0,.27-.4.27-.4,0v-3.26l1.53.07h34.15v3.19Z"/>
  <path class="st0" d="M-970.69,232.95v3.19h-30.75c-.27,0-.27-.4,0-.4,2,0,3.06-2.6,3.06-4.53v-38.4c0-1.73-1.33-2.86-3.33-2.86-.27,0-.27-.4,0-.4h10.32c.27,0,.27.4,0,.4-2,0-3.33,1.13-3.33,2.86v42.93h19.1c1.93,0,4.53-.8,4.53-2.79,0-.27.4-.27.4,0Z"/>
  <path class="st0" d="M-922.56,192.75c0,.27-.4.27-.4,0,0-2-2.6-2.79-4.53-2.79h-20.43v18.9h10.45c1.93,0,4.53-.8,4.53-2.8,0-.27.4-.27.4,0v5.99c0,.27-.4.27-.4,0,0-2-2.6-2.79-4.53-2.79h-10.45v26.49h20.43c1.93,0,4.53-.8,4.53-2.79,0-.27.4-.27.4,0v3.19h-32.08c-.27,0-.27-.4,0-.4,2,0,3.06-2.6,3.06-4.53v-36.74c0-1.93-1.06-4.53-3.06-4.53-.27,0-.27-.4,0-.4h32.08v3.19Z"/>
  <path class="st0" d="M-868.85,189.95c-2,0-4.79,1-6.12,2.26l-12.31,19.57v21.1c0,1.73,1.33,2.86,3.33,2.86.27,0,.27.4,0,.4h-10.32c-.27,0-.27-.4,0-.4,2,0,3.33-1.13,3.33-2.86v-20.9l-12.31-19.97c-1.2-1.4-2.73-2.06-4.59-2.06-.27,0-.27-.4,0-.4h10.78c.27,0,.27.4,0,.4-2,0-2.66.47-1.8,2l11.25,18.5,11.38-18.44c1.13-1.8-.27-2.06-2.26-2.06-.27,0-.27-.4,0-.4h9.65c.27,0,.27.4,0,.4Z"/>
  <path class="st0" d="M-819.04,236.3c-2,0-4.4-.66-5.26-2.46l-17.24-43.73h-5.73c-.26,0-.26.4,0,.4,1.74,0,2.67,1.2,3.13,2.66-5.26,13.65-10.51,27.29-15.77,40.94-.25.64-.49,1.28-.74,1.92-1.99,5.17-6.24,9.12-11.53,10.78-.89.29-1.34.44-1.34.48.01.02.18,0,.52-.07,5.95-1.23,10.85-5.43,13.08-11.08.27-.68.54-1.35.81-2.03.81-2.12,2.21-5.73,3.49-9.01,1.42-1.58,7.7-7.89,16.01-6.89,1.93.23,3.81.86,5.6,1.83l.8,1.96c1.64,4.01,3.63,8.57,5.12,12.32.27,1.46-1.19,1.99-3.12,1.99-.27,0-.27.4,0,.4h12.18c.26,0,.26-.4,0-.4ZM-855.16,223.89c.52-1.35,1.01-2.59,1.4-3.6l.24-.63.02-.05c.02-.05.04-.12.08-.2l.51-1.32c2.08-5.42,8.85-22.94,9.1-23.59,2.94,7.51,6.53,17.24,9.51,24.83-1.69-.85-3.45-1.4-5.26-1.62-7.42-.89-13.23,3.85-15.6,6.18Z"/>
  <path class="st0" d="M-1010.48,236.42c-2,0-4.39-.67-5.26-2.47l-17.24-43.72h-5.72c-.27,0-.27.4,0,.4,1.73,0,2.66,1.19,3.13,2.66l-15.78,40.93c-.86,1.67-3.26,2.2-5.19,2.2-.27,0-.27.4,0,.4h8.92c.26,0,.26-.4,0-.4-2,0-3.4-.6-2.93-2.2,1.23-3.2,2.46-6.4,3.69-9.59,1.36-1.52,7.68-7.93,16.04-6.93,1.84.22,3.63.81,5.34,1.7l.36.91h-.03l.16.4,5.46,13.71c.26,1.47-1.2,2-3.13,2-.27,0-.27.4,0,.4h12.18c.26,0,.26-.4,0-.4ZM-1030.76,217.2c-7.44-.9-13.28,3.89-15.63,6.21.73-1.88,1.47-3.76,2.2-5.65h.01l8.94-23.15,9.48,24.07c-1.61-.77-3.29-1.28-5.01-1.49Z"/>
  <path class="st0" d="M-1107.13,235.74c-2,0-4.39-.67-5.26-2.47l-17.24-43.72h-5.72c-.27,0-.27.4,0,.4,1.73,0,2.66,1.19,3.13,2.66l-15.78,40.93c-.86,1.67-3.26,2.2-5.19,2.2-.27,0-.27.4,0,.4h8.92c.26,0,.26-.4,0-.4-2,0-3.4-.6-2.93-2.2,1.23-3.2,2.46-6.4,3.69-9.59,1.36-1.52,7.68-7.93,16.04-6.93,1.84.22,3.63.81,5.34,1.7l.36.91h-.03l.16.4,5.46,13.71c.26,1.47-1.2,2-3.13,2-.27,0-.27.4,0,.4h12.18c.26,0,.26-.4,0-.4ZM-1127.42,216.53c-7.44-.9-13.28,3.89-15.63,6.21.73-1.88,1.47-3.76,2.2-5.65h.01l8.94-23.15,9.48,24.07c-1.61-.77-3.29-1.28-5.01-1.49Z"/>
  <path class="st0" d="M-1171.33,258.58h1.23v4.03l4.43-4.03h1.71l-4.85,4.38,5.23,5.19h-1.74l-4.4-4.42-.39.34v4.08h-1.23v-9.56Z"/>
  <path class="st0" d="M-1149.78,258.58v9.56h-1.21v-1.64c-.52.63-1.09,1.1-1.74,1.42-.64.32-1.34.47-2.1.47-1.35,0-2.51-.49-3.47-1.47-.96-.98-1.44-2.17-1.44-3.58s.48-2.55,1.45-3.53,2.13-1.47,3.49-1.47c.79,0,1.5.17,2.13.5.63.33,1.19.83,1.67,1.5v-1.76h1.21ZM-1154.69,259.52c-.68,0-1.32.17-1.9.5-.58.34-1.04.81-1.38,1.42-.34.61-.51,1.25-.51,1.93s.17,1.32.52,1.93c.35.62.81,1.09,1.39,1.44s1.21.51,1.88.51,1.31-.17,1.91-.51c.6-.34,1.07-.8,1.39-1.38.33-.58.49-1.23.49-1.96,0-1.11-.36-2.03-1.09-2.77s-1.63-1.12-2.69-1.12Z"/>
  <path class="st0" d="M-1136.27,254.89h1.23v5.13c.77-1.09,1.87-1.64,3.31-1.64s2.55.47,3.49,1.42c.94.94,1.41,2.15,1.41,3.63s-.47,2.66-1.42,3.59-2.1,1.41-3.45,1.41c-1.48,0-2.59-.58-3.35-1.72v4.93h-1.23v-4.93c-.74,1.16-1.87,1.73-3.38,1.73-1.32,0-2.46-.47-3.41-1.41-.95-.94-1.43-2.14-1.43-3.6s.47-2.69,1.41-3.63c.94-.94,2.1-1.42,3.49-1.42,1.47,0,2.58.55,3.31,1.64v-5.13ZM-1143.24,263.37c0,1.07.34,1.98,1.03,2.74s1.61,1.14,2.76,1.14c.4,0,.83-.1,1.28-.3.46-.2.82-.46,1.1-.76.28-.31.49-.66.63-1.07s.21-1,.21-1.78c0-1.24-.32-2.19-.97-2.85-.64-.66-1.42-.99-2.33-.99-1.02,0-1.9.37-2.62,1.1s-1.09,1.66-1.09,2.77ZM-1135.07,263.59c0,1.14.33,2.04.97,2.69s1.4.98,2.24.98c1.15,0,2.07-.38,2.76-1.14s1.04-1.68,1.04-2.75-.36-2.03-1.09-2.76-1.6-1.1-2.62-1.1c-.92,0-1.7.33-2.33.98-.64.65-.96,1.69-.96,3.11Z"/>
  <path class="st0" d="M-1113.5,264.97l1.04.54c-.34.67-.73,1.21-1.18,1.62-.45.41-.95.72-1.5.94-.56.21-1.19.32-1.89.32-1.56,0-2.78-.51-3.66-1.53s-1.32-2.18-1.32-3.47c0-1.21.37-2.29,1.12-3.24.94-1.21,2.21-1.81,3.79-1.81s2.93.62,3.91,1.85c.69.87,1.04,1.96,1.06,3.27h-8.6c.02,1.11.38,2.02,1.06,2.73s1.53,1.07,2.54,1.07c.49,0,.96-.08,1.42-.25.46-.17.85-.39,1.17-.67.32-.28.67-.73,1.05-1.36ZM-1113.5,262.39c-.16-.66-.4-1.18-.72-1.57-.31-.39-.73-.71-1.25-.95-.52-.24-1.06-.36-1.63-.36-.94,0-1.75.3-2.42.91-.49.44-.87,1.1-1.12,1.98h7.13Z"/>
  <path class="st0" d="M-1094.37,258.33c1.47,0,2.69.53,3.66,1.6.88.97,1.32,2.12,1.32,3.45s-.46,2.5-1.4,3.5-2.13,1.5-3.59,1.5-2.67-.5-3.6-1.5-1.4-2.17-1.4-3.5.44-2.47,1.32-3.45c.97-1.07,2.19-1.61,3.67-1.61ZM-1094.38,259.54c-1.02,0-1.9.38-2.64,1.13s-1.1,1.67-1.1,2.74c0,.69.17,1.34.5,1.93s.79,1.06,1.36,1.38c.57.32,1.2.49,1.88.49s1.31-.16,1.88-.49c.57-.33,1.02-.79,1.36-1.38s.5-1.24.5-1.93c0-1.07-.37-1.99-1.11-2.74-.74-.76-1.62-1.13-2.63-1.13Z"/>
  <path class="st0" d="M-1074.84,260.56l-.98.61c-.84-1.12-1.99-1.68-3.45-1.68-1.17,0-2.13.38-2.9,1.12s-1.15,1.66-1.15,2.73c0,.7.18,1.35.53,1.97.35.62.84,1.09,1.46,1.43.62.34,1.31.51,2.08.51,1.4,0,2.55-.56,3.44-1.68l.98.64c-.46.69-1.07,1.22-1.84,1.6-.77.38-1.65.57-2.63.57-1.51,0-2.77-.48-3.76-1.44s-1.49-2.13-1.49-3.51c0-.93.23-1.79.7-2.58.47-.79,1.11-1.41,1.92-1.86s1.73-.67,2.73-.67c.63,0,1.24.1,1.83.29.59.19,1.09.45,1.5.76s.76.71,1.05,1.19Z"/>
  <path class="st0" d="M-1064.96,258.33c1.47,0,2.69.53,3.66,1.6.88.97,1.32,2.12,1.32,3.45s-.46,2.5-1.4,3.5-2.13,1.5-3.59,1.5-2.67-.5-3.6-1.5-1.4-2.17-1.4-3.5.44-2.47,1.32-3.45c.97-1.07,2.19-1.61,3.67-1.61ZM-1064.97,259.54c-1.02,0-1.9.38-2.64,1.13s-1.1,1.67-1.1,2.74c0,.69.17,1.34.5,1.93s.79,1.06,1.36,1.38c.57.32,1.2.49,1.88.49s1.31-.16,1.88-.49c.57-.33,1.02-.79,1.36-1.38s.5-1.24.5-1.93c0-1.07-.37-1.99-1.11-2.74-.74-.76-1.62-1.13-2.63-1.13Z"/>
  <path class="st0" d="M-1053.12,262.58h.64c.41,0,.79-.13,1.13-.4.34-.27.51-.65.51-1.15,0-.43-.14-.79-.41-1.1-.27-.31-.7-.46-1.26-.46-.66,0-1.33.26-1.99.77l-.7-.85c.86-.72,1.78-1.08,2.74-1.08.8,0,1.46.24,2,.71.54.47.81,1.08.81,1.83,0,.99-.44,1.67-1.32,2.02,1.15.48,1.72,1.32,1.72,2.52,0,.76-.27,1.45-.8,2.06-.54.61-1.34.92-2.4.92-1.31,0-2.36-.42-3.16-1.27l.78-.88c.59.67,1.35,1,2.27,1,.62,0,1.11-.17,1.46-.5s.53-.77.53-1.32-.18-.96-.54-1.28-.78-.48-1.27-.48h-.76v-1.06Z"/>
  <path class="st0" d="M-1037.32,263.53h-5.56v4.61h-1.23v-9.56h1.23v3.8h5.56v-3.8h1.23v9.56h-1.23v-4.61Z"/>
  <path class="st0" d="M-1020.83,258.58v9.56h-1.21v-1.64c-.52.63-1.09,1.1-1.74,1.42-.64.32-1.34.47-2.1.47-1.35,0-2.51-.49-3.47-1.47-.96-.98-1.44-2.17-1.44-3.58s.48-2.55,1.45-3.53,2.13-1.47,3.49-1.47c.79,0,1.5.17,2.13.5.63.33,1.19.83,1.67,1.5v-1.76h1.21ZM-1025.75,259.52c-.68,0-1.32.17-1.9.5-.58.34-1.04.81-1.38,1.42-.34.61-.51,1.25-.51,1.93s.17,1.32.52,1.93c.35.62.81,1.09,1.39,1.44s1.21.51,1.88.51,1.31-.17,1.91-.51c.6-.34,1.07-.8,1.39-1.38.33-.58.49-1.23.49-1.96,0-1.11-.36-2.03-1.09-2.77s-1.63-1.12-2.69-1.12Z"/>
  <path class="st0" d="M-1008.28,263.53h-5.56v4.61h-1.23v-9.56h1.23v3.8h5.56v-3.8h1.23v9.56h-1.23v-4.61Z"/>
  <path class="st0" d="M-994.53,263.53h-5.56v4.61h-1.23v-9.56h1.23v3.8h5.56v-3.8h1.23v9.56h-1.23v-4.61Z"/>
  <path class="st0" d="M-983.04,258.33c1.47,0,2.69.53,3.66,1.6.88.97,1.32,2.12,1.32,3.45s-.46,2.5-1.4,3.5-2.13,1.5-3.59,1.5-2.67-.5-3.6-1.5-1.4-2.17-1.4-3.5.44-2.47,1.32-3.45c.97-1.07,2.19-1.61,3.67-1.61ZM-983.05,259.54c-1.02,0-1.9.38-2.64,1.13s-1.1,1.67-1.1,2.74c0,.69.17,1.34.5,1.93s.79,1.06,1.36,1.38c.57.32,1.2.49,1.88.49s1.31-.16,1.88-.49c.57-.33,1.02-.79,1.36-1.38s.5-1.24.5-1.93c0-1.07-.37-1.99-1.11-2.74-.74-.76-1.62-1.13-2.63-1.13Z"/>
  <path class="st0" d="M-971.56,259.66v8.48h-1.23v-9.56h4.83v1.08h-3.6Z"/>
  <path class="st0" d="M-958.78,258.33c1.47,0,2.69.53,3.66,1.6.88.97,1.32,2.12,1.32,3.45s-.46,2.5-1.4,3.5-2.13,1.5-3.59,1.5-2.67-.5-3.6-1.5-1.4-2.17-1.4-3.5.44-2.47,1.32-3.45c.97-1.07,2.19-1.61,3.67-1.61ZM-958.79,259.54c-1.02,0-1.9.38-2.64,1.13s-1.1,1.67-1.1,2.74c0,.69.17,1.34.5,1.93s.79,1.06,1.36,1.38c.57.32,1.2.49,1.88.49s1.31-.16,1.88-.49c.57-.33,1.02-.79,1.36-1.38s.5-1.24.5-1.93c0-1.07-.37-1.99-1.11-2.74-.74-.76-1.62-1.13-2.63-1.13Z"/>
  <path class="st0" d="M-940.57,258.58h8.02v9.56h-1.23v-8.4h-5.56v8.4h-1.23v-9.56Z"/>
  <path class="st0" d="M-925.58,258.58v7.08l7.02-7.08h.1v9.56h-1.23v-7.01l-6.97,7.01h-.15v-9.56h1.23Z"/>
  <path class="st0" d="M-913.8,258.58h6.29v1.06h-2.53v8.5h-1.23v-8.5h-2.53v-1.06Z"/>
  <path class="st0" d="M-893.33,258.58v9.56h-1.21v-1.64c-.52.63-1.09,1.1-1.74,1.42-.64.32-1.34.47-2.1.47-1.35,0-2.51-.49-3.47-1.47-.96-.98-1.44-2.17-1.44-3.58s.48-2.55,1.45-3.53,2.13-1.47,3.49-1.47c.79,0,1.5.17,2.13.5.63.33,1.19.83,1.67,1.5v-1.76h1.21ZM-898.24,259.52c-.68,0-1.32.17-1.9.5-.58.34-1.04.81-1.38,1.42-.34.61-.51,1.25-.51,1.93s.17,1.32.52,1.93c.35.62.81,1.09,1.39,1.44s1.21.51,1.88.51,1.31-.17,1.91-.51c.6-.34,1.07-.8,1.39-1.38.33-.58.49-1.23.49-1.96,0-1.11-.36-2.03-1.09-2.77s-1.63-1.12-2.69-1.12Z"/>
  <path class="st0" d="M-880.78,263.53h-5.56v4.61h-1.23v-9.56h1.23v3.8h5.56v-3.8h1.23v9.56h-1.23v-4.61Z"/>
  <path class="st0" d="M-872.58,258.58v7.08l7.02-7.08h.1v9.56h-1.23v-7.01l-6.97,7.01h-.15v-9.56h1.23Z"/>
  <path class="st0" d="M-855.7,263.86h-.88l-2.73,4.28h-1.33l2.88-4.4c-.72-.09-1.3-.36-1.74-.81-.45-.45-.67-1.02-.67-1.69,0-.84.26-1.5.77-1.96s1.19-.69,2.02-.69h2.91v9.56h-1.23v-4.28ZM-855.7,259.64h-.81c-.79,0-1.31.05-1.58.15s-.48.27-.64.51c-.16.24-.24.57-.24.98s.1.72.31.97c.21.26.43.41.69.47s.74.09,1.47.09h.81v-3.17Z"/>
  <g id="GAx2FO">
    <path class="st1" d="M-357.95,144.49l-.8-1.83c-.08-.19-.19-.3-.4-.3-.29,0-.27.21-.36.42l-1.15,2.49-1.36,2.49c-1.65,3.01-3.97,5.6-6.63,7.94l-1.19.99c-2.35,1.95-5.36,3.57-8.33,4.66-1.99.73-3.94,1.29-6.11,1.46-3.3.25-7.48.12-10.43-1.11l-3.26-1.35c-.19-.08-.31-.51-.31-.69l.03-2.68.09-.93.5-2.96c.46-1.96,1.3-3.77,2.24-5.59-.36-.49-.88-.77-1.35-1.12l-.68-.51c-.49-.57-1.04-1.02-1.59-1.54-.34-.32-.61-.66-.94-1.02l-.56-.6-1.73-2.26-1.38-2.09-1.11-2.25-.93-2.21-.72-2.63c-.09-.34.03-.73-.05-1.03-.18-.68-.08-1.2-.01-1.88l.09-1.01c.3-1.87,1.07-3.55,2.05-5.2.57-.96,1.11-1.85,1.85-2.71l1.68-1.93c.98-1.13,2.09-2.12,3.3-3.06l.82-.64,1.63-1.13c2.29-1.59,6.07-3.37,8.89-3.9,1.9-.36,3.74-.61,5.69-.43,1.21.11,2.41.25,3.55.61l1.5.46c.4-4.21,1.6-7.89,3.79-11.52l2.15-2.98c1-1.38,2.26-2.51,3.58-3.65l2.63-1.99,2.13-1.25c.65-.38,1.3-.73,2.04-.98,1.08.37,1.96.95,2.93,1.47,1.12.61,2.04,1.34,3.03,2.12,1.82,1.43,3.43,3.05,4.8,4.84l1.73,2.55,1.03,1.78c1.49,3.08,2.42,6.25,2.66,9.67l2.12-.65,3.18-.48h2.68c3.92.39,5.42,1.06,8.77,2.59l1.91,1.07,1.86,1.21,2.93,2.37,2.08,2.03.69.78.94,1.09,1.22,1.68,1.56,2.79c.6,1.08.88,2.28,1.06,3.49l.1.66-.02,2.28c0,1.26-.44,2.4-.85,3.62-.92,2.72-2.37,5.22-4.12,7.57l-1.09,1.27-.92,1.03-2.58,2.4-1.5,1.22c.85,1.58,1.6,3.13,2.01,4.82.3,1.26.64,2.44.73,3.73l.08,1.2v1.95c0,.37.06.77-.24,1.07s-.74.37-1.13.55c-2.2.97-4.45,1.8-6.91,1.93l-2.64.14-3.52-.17c-2.15-.1-6.29-1.52-8.33-2.53-1.48-.73-2.89-1.49-4.16-2.47l-2.56-1.97c-1.72-1.52-3.24-3.09-4.56-4.89l-1.03-1.41-1.96-3.32-.8-1.65ZM-359.06,125.09c1.14.83,2.04,1.79,3.02,2.79l2.02-1.06c3.35-2.02,4.9-5.41,4.97-9.03.04-2.13.75-4.11,2.2-5.78l1.02-.93,2.03-1.2c.06-.88-.08-1.74-.26-2.61l-.24-1.18c-.38-1.9-.95-3.74-1.87-5.47l-.48-.9c-.87-1.64-1.84-3.14-3.06-4.58-.37-.44-.68-.83-1.09-1.26l-.81-.84c-.33-.34-.66-.63-1.03-.93l-2.28-1.85-.87-.52c-.79-.59-1.62-1.09-2.5-1.55-.6-.32-1.22-.26-1.78.05-.94.52-1.83,1.05-2.71,1.64l-1.13.76-1.43,1.14c-4.07,3.6-7.23,8.19-8.46,13.26-.27,1.11-.45,2.15-.6,3.29-.06.46-.24,1.09-.02,1.53l1.43.81c1.3.74,2.44,2.1,2.98,3.38.37.88.71,1.76.73,2.76.06,1.97.23,3.91,1.15,5.74.69,1.37,2.22,3.31,3.49,4l2.24,1.22,2.1-2.05.73-.55c.11-.08.37-.19.51-.1ZM-382.94,137.12l2.75-1.21c.84-.37,1.66-.59,2.55-.87,3.59-1.15,7.26-1.88,11.06-2.11,1.38-.08,1.95-1.29,2.29-2.48-.03-.21-.44-.27-.6-.29-1.12-.48-2-1.12-3-1.79-1.88-1.51-3.57-3.24-4.7-5.29-.75-1.35-1.38-2.68-1.82-4.12-.6-1.97-1.06-4.45-1.09-6.45l-.03-2.16c-1.97-.8-3.38-1.17-5.56-1.31-.46-.03-.81-.11-1.3.01l-1.08.04c-1.65.17-3.16.57-4.7,1.05-.97.3-1.82.65-2.72,1.09l-1.81.9c-4.33,2.5-7.88,5.75-10.52,9.74-.62.94-1.19,1.83-1.55,2.88s-.68,2.13-.84,3.25c-.29,2.09.3,4.41,1.01,6.46.47,1.38,1.22,2.61,1.96,3.88,1.76,2.99,4.63,6.33,7.67,8.39.29-.63.66-1.03,1.03-1.5,1.44-1.84,3.15-3.37,5.14-4.75,1.84-1.27,3.73-2.44,5.85-3.38ZM-323.37,146.79l1.22-.95,1.88-1.66c2.61-2.52,4.66-5.43,6.1-8.62.46-1.02.75-1.94,1.04-2.98.58-2.05.7-4.15.07-6.2-.29-.93-.52-1.77-1-2.64l-.82-1.5-1.08-1.53c-.71-1.01-1.47-1.93-2.36-2.81l-1.92-1.89-1.28-1.08-3.67-2.53-1-.5-1.78-.91c-.89-.45-1.84-.72-2.8-1.02l-.85-.26c-1.39-.42-2.78-.61-4.24-.66-.56-.02-1.1-.14-1.66.02-1.66.06-3.18.51-4.71,1.08-.16.03-.67.13-.66.32.11.87.03,1.66,0,2.51-.02.49,0,.91-.07,1.4-.35,2.78-1.06,5.46-2.38,8-.79,1.51-1.68,2.92-2.98,4.1l-2.1,1.9c-1.16.88-2.38,1.54-3.77,2.12l.53,1.17c.23.76.93,1.2,1.81,1.27l3.31.28c4.27.64,8.97,1.87,12.74,3.75l1.17.51,1.08.63c1.7.87,3.2,1.88,4.71,2.99l1.78,1.48c1.47,1.23,2.69,2.61,3.7,4.21ZM-362.91,128.37c-1.43-.58-3.13-1.73-4.02-2.7-2.08-2.27-3.01-4.52-3.08-7.5-.04-1.52-.27-3.01-1.07-4.36l-.89-1.23c-.74-.78-1.6-1.38-2.61-1.88l.02,2.62c.48,4.99,1.63,8.79,5.26,12.72.78.85,1.66,1.52,2.61,2.21.85.61,1.76,1.09,2.86,1.39.37-.39.66-.79.93-1.27ZM-347.08,123.6l.71-1.11.6-1.15c.93-1.79,1.39-3.67,1.73-5.61.29-1.67.44-3.27.31-5-2.48,1.19-3.84,3.14-4.35,5.59-.22,1.06-.13,2.08-.24,3.13-.13,1.2-.54,2.31-1.05,3.41-1.19,2.56-3.44,4.41-6.19,5.67.43.46.7.83.97,1.28,3.12-1.11,5.91-3.66,7.53-6.21ZM-358.01,137.43l-.02-.7c-.02-.79-.21-1.51-.5-2.26l-.67-1.73c-.38-.98-.45-1.99-.27-3.03l.41-2.4c.07-.4.21-.81-.14-1.21-.96.55-1.71,1.24-2.34,2.05l-.72.94c-1.15,1.49-1.93,3.14-2.22,4.96-.39,2.47.5,5.16,2.69,6.68.58.4,1.31.59,1.99.72,1-.88,1.83-2.86,1.8-4.03ZM-358.59,141.51c1.68-.54,3.18-1.51,3.92-3,.93-1.87.94-3.99.33-5.93l-.64-1.51c-.79-1.51-1.79-2.88-3.24-4.08l-.4,2.13c-.34,1.26-.23,2.47.27,3.67l.76,1.82c.77,2.1.48,4.29-.71,6.2-.14.22-.27.4-.29.7ZM-329.37,162.11c2.97-.36,5.89-.91,8.43-2.37.14-2.21-.04-4.32-.6-6.44-.09-.76-.36-1.43-.62-2.15-.39-1.08-.78-2.16-1.49-3.14-1.51.91-2.88,1.86-4.48,2.44l-2.51.92c-1.78.65-4.39,1.11-6.27.88-4.12-.48-7.11-2.85-9.39-5.85l-.71-.94-.91-1.5c-.7-1.37-1.41-2.69-1.85-4.16l-.46-1.55c-.56-1.89-.83-3.6-2.93-4.84l.08,1.27c.09,1.47-.19,3.14-.93,4.45s-2.14,2.29-3.68,2.87c-.23.09-.38.21-.26.48l.59,1.33.77,1.63c1.52,3.21,3.76,6.05,6.35,8.65l.97.9c1.13,1.04,2.35,1.91,3.65,2.76,1.23.81,2.43,1.47,3.8,2.07s2.74,1.24,4.28,1.54l3.2.62.93.09,1.36.09c.44.03.96.04,1.42,0,.43-.03.82-.15,1.26-.06ZM-397.39,159.73c1.34.79,2.64,1.31,4.09,1.65,1.31.31,2.58.58,3.93.7l.95.08h3.06c1.66-.01,3.18-.43,4.79-.8,1.26-.29,2.38-.77,3.55-1.26,7.95-3.34,13.97-10.46,16.79-17.83-.93-.27-1.74-.59-2.41-1.14s-1.31-1.07-1.69-1.81c-.99-1.79-1.29-3.74-.96-5.73-.34,0-.43.32-.61.47-.7.58-1.53,1.96-1.78,2.78l-.75,2.51c-.62,2.08-1.69,3.97-2.84,5.86l-2.1,2.65-1.31,1.23c-1.78,1.67-4.34,2.85-6.93,3.17-.72.09-1.34.04-2.06,0-1.51-.09-2.85-.46-4.25-.93-1.88-.63-3.6-1.4-5.25-2.43l-1.54-.97c-1.6,2.64-2.38,5.87-2.66,8.8v3ZM-388.24,150.43c1.45.64,2.92.86,4.44,1.04.77.09,1.41.05,2.16,0,1.76-.13,3.25-.7,4.67-1.62,4.24-2.74,7-7.72,8.19-12.23.38-1.44,1.05-2.66,2.01-3.94l-3.72.47c-3.01.38-5.79,1.17-8.6,2.17-1.6.57-3.05,1.2-4.52,1.99l-1.88,1.01c-3.78,2.33-6.46,4.17-8.79,7.95.99.66,1.89,1.34,2.97,1.82l3.07,1.36ZM-328.53,149.77c1.58-.68,3.03-1.47,4.44-2.49-.66-1.2-1.59-2.21-2.57-3.22-.92-.95-1.88-1.76-2.99-2.52-.8-.75-1.78-1.24-2.7-1.84-.64-.42-1.27-.76-1.97-1.12l-1.9-.97-3.34-1.36c-3.62-1.48-7.83-2.2-11.83-2.51l1.08,1.69.68,1.98c.57,2,1.23,3.94,2.24,5.79,1.07,1.96,2.37,3.71,4.05,5.27.71.66,1.54,1.13,2.38,1.67,1.15.75,2.52,1.18,3.96,1.28.8.21,1.56.12,2.36.01l2.03-.26c1.46-.31,2.75-.83,4.09-1.41Z"/>
  </g>
  <path class="st2" d="M-550.1,210.79c.47-13.11,9.72-22.9,21.76-23.23,5.39-.2,10.58,1.66,15.24,5.32,3.26,2.6,2.93,5.59.2,6.92-.73.4-1.4.27-1.6-.53-1.8-7.52-5.72-11.12-13.44-11.12-9.38,0-17.71,9.32-17.71,24.09,0,12.65,6.99,20.97,17.77,22.43,6.39.87,13.05-2.13,16.84-7.99.53-.8.87-1.13,1.13-1.07.2.07.4.4-.27,1.26-4.13,6.32-10.85,9.78-18.04,9.25-13.18-.93-22.23-11.12-21.9-25.36Z"/>
  <path class="st2" d="M-413.72,191.55c0,.27-.4.27-.4,0,0-2-2.6-2.79-4.53-2.79h-10.72v42.93c0,1.73,1.33,2.86,3.33,2.86.27,0,.27.4,0,.4h-10.32c-.27,0-.27-.4,0-.4,2,0,3.33-1.13,3.33-2.86v-42.93h-11.45c-1.93,0-4.53.8-4.53,2.79,0,.27-.4.27-.4,0v-3.26l1.53.07h34.15v3.19Z"/>
  <path class="st2" d="M-317.01,231.75v3.19h-30.75c-.27,0-.27-.4,0-.4,2,0,3.06-2.6,3.06-4.53v-38.4c0-1.73-1.33-2.86-3.33-2.86-.27,0-.27-.4,0-.4h10.32c.27,0,.27.4,0,.4-2,0-3.33,1.13-3.33,2.86v42.93h19.1c1.93,0,4.53-.8,4.53-2.79,0-.27.4-.27.4,0Z"/>
  <path class="st2" d="M-268.88,191.55c0,.27-.4.27-.4,0,0-2-2.6-2.79-4.53-2.79h-20.43v18.9h10.45c1.93,0,4.53-.8,4.53-2.8,0-.27.4-.27.4,0v5.99c0,.27-.4.27-.4,0,0-2-2.6-2.79-4.53-2.79h-10.45v26.49h20.43c1.93,0,4.53-.8,4.53-2.79,0-.27.4-.27.4,0v3.19h-32.08c-.27,0-.27-.4,0-.4,2,0,3.06-2.6,3.06-4.53v-36.74c0-1.93-1.06-4.53-3.06-4.53-.27,0-.27-.4,0-.4h32.08v3.19Z"/>
  <path class="st2" d="M-215.17,188.76c-2,0-4.79,1-6.12,2.26l-12.31,19.57v21.1c0,1.73,1.33,2.86,3.33,2.86.27,0,.27.4,0,.4h-10.32c-.27,0-.27-.4,0-.4,2,0,3.33-1.13,3.33-2.86v-20.9l-12.31-19.97c-1.2-1.4-2.73-2.06-4.59-2.06-.27,0-.27-.4,0-.4h10.78c.27,0,.27.4,0,.4-2,0-2.66.47-1.8,2l11.25,18.5,11.38-18.44c1.13-1.8-.27-2.06-2.26-2.06-.27,0-.27-.4,0-.4h9.65c.27,0,.27.4,0,.4Z"/>
  <path class="st2" d="M-165.36,235.11c-2,0-4.4-.66-5.26-2.46l-17.24-43.73h-5.73c-.26,0-.26.4,0,.4,1.74,0,2.67,1.2,3.13,2.66-5.26,13.65-10.51,27.29-15.77,40.94-.25.64-.49,1.28-.74,1.92-1.99,5.17-6.24,9.12-11.53,10.78-.89.29-1.34.44-1.34.48.01.02.18,0,.52-.07,5.95-1.23,10.85-5.43,13.08-11.08.27-.68.54-1.35.81-2.03.81-2.12,2.21-5.73,3.49-9.01,1.42-1.58,7.7-7.89,16.01-6.89,1.93.23,3.81.86,5.6,1.83l.8,1.96c1.64,4.01,3.63,8.57,5.12,12.32.27,1.46-1.19,1.99-3.12,1.99-.27,0-.27.4,0,.4h12.18c.26,0,.26-.4,0-.4ZM-201.47,222.7c.52-1.35,1.01-2.59,1.4-3.6l.24-.63.02-.05c.02-.05.04-.12.08-.2l.51-1.32c2.08-5.42,8.85-22.94,9.1-23.59,2.94,7.51,6.53,17.24,9.51,24.83-1.69-.85-3.45-1.4-5.26-1.62-7.42-.89-13.23,3.85-15.6,6.18Z"/>
  <path class="st2" d="M-356.8,235.22c-2,0-4.39-.67-5.26-2.47l-17.24-43.72h-5.72c-.27,0-.27.4,0,.4,1.73,0,2.66,1.19,3.13,2.66l-15.78,40.93c-.86,1.67-3.26,2.2-5.19,2.2-.27,0-.27.4,0,.4h8.92c.26,0,.26-.4,0-.4-2,0-3.4-.6-2.93-2.2,1.23-3.2,2.46-6.4,3.69-9.59,1.36-1.52,7.68-7.93,16.04-6.93,1.84.22,3.63.81,5.34,1.7l.36.91h-.03l.16.4,5.46,13.71c.26,1.47-1.2,2-3.13,2-.27,0-.27.4,0,.4h12.18c.26,0,.26-.4,0-.4ZM-377.08,216.01c-7.44-.9-13.28,3.89-15.63,6.21.73-1.88,1.47-3.76,2.2-5.65h.01l8.94-23.15,9.48,24.07c-1.61-.77-3.29-1.28-5.01-1.49Z"/>
  <path class="st2" d="M-453.45,234.55c-2,0-4.39-.67-5.26-2.47l-17.24-43.72h-5.72c-.27,0-.27.4,0,.4,1.73,0,2.66,1.19,3.13,2.66l-15.78,40.93c-.86,1.67-3.26,2.2-5.19,2.2-.27,0-.27.4,0,.4h8.92c.26,0,.26-.4,0-.4-2,0-3.4-.6-2.93-2.2,1.23-3.2,2.46-6.4,3.69-9.59,1.36-1.52,7.68-7.93,16.04-6.93,1.84.22,3.63.81,5.34,1.7l.36.91h-.03l.16.4,5.46,13.71c.26,1.47-1.2,2-3.13,2-.27,0-.27.4,0,.4h12.18c.26,0,.26-.4,0-.4ZM-473.74,215.33c-7.44-.9-13.28,3.89-15.63,6.21.73-1.88,1.47-3.76,2.2-5.65h.01l8.94-23.15,9.48,24.07c-1.61-.77-3.29-1.28-5.01-1.49Z"/>
  <g>
    <path class="st2" d="M-517.65,257.38h1.23v4.03l4.43-4.03h1.71l-4.85,4.38,5.23,5.19h-1.74l-4.4-4.42-.39.34v4.08h-1.23v-9.56Z"/>
    <path class="st2" d="M-496.1,257.38v9.56h-1.21v-1.64c-.52.63-1.09,1.1-1.74,1.42-.64.32-1.34.47-2.1.47-1.35,0-2.51-.49-3.47-1.47-.96-.98-1.44-2.17-1.44-3.58s.48-2.55,1.45-3.53,2.13-1.47,3.49-1.47c.79,0,1.5.17,2.13.5.63.33,1.19.83,1.67,1.5v-1.76h1.21ZM-501.01,258.32c-.68,0-1.32.17-1.9.5-.58.34-1.04.81-1.38,1.42-.34.61-.51,1.25-.51,1.93s.17,1.32.52,1.93c.35.62.81,1.09,1.39,1.44s1.21.51,1.88.51,1.31-.17,1.91-.51c.6-.34,1.07-.8,1.39-1.38.33-.58.49-1.23.49-1.96,0-1.11-.36-2.03-1.09-2.77s-1.63-1.12-2.69-1.12Z"/>
    <path class="st2" d="M-482.59,253.69h1.23v5.13c.77-1.09,1.87-1.64,3.31-1.64s2.55.47,3.49,1.42c.94.94,1.41,2.15,1.41,3.63s-.47,2.66-1.42,3.59-2.1,1.41-3.45,1.41c-1.48,0-2.59-.58-3.35-1.72v4.93h-1.23v-4.93c-.74,1.16-1.87,1.73-3.38,1.73-1.32,0-2.46-.47-3.41-1.41-.95-.94-1.43-2.14-1.43-3.6s.47-2.69,1.41-3.63c.94-.94,2.1-1.42,3.49-1.42,1.47,0,2.58.55,3.31,1.64v-5.13ZM-489.56,262.17c0,1.07.34,1.98,1.03,2.74s1.61,1.14,2.76,1.14c.4,0,.83-.1,1.28-.3.46-.2.82-.46,1.1-.76.28-.31.49-.66.63-1.07s.21-1,.21-1.78c0-1.24-.32-2.19-.97-2.85-.64-.66-1.42-.99-2.33-.99-1.02,0-1.9.37-2.62,1.1s-1.09,1.66-1.09,2.77ZM-481.39,262.39c0,1.14.33,2.04.97,2.69s1.4.98,2.24.98c1.15,0,2.07-.38,2.76-1.14s1.04-1.68,1.04-2.75-.36-2.03-1.09-2.76-1.6-1.1-2.62-1.1c-.92,0-1.7.33-2.33.98-.64.65-.96,1.69-.96,3.11Z"/>
    <path class="st2" d="M-459.82,263.77l1.04.54c-.34.67-.73,1.21-1.18,1.62-.45.41-.95.72-1.5.94-.56.21-1.19.32-1.89.32-1.56,0-2.78-.51-3.66-1.53s-1.32-2.18-1.32-3.47c0-1.21.37-2.29,1.12-3.24.94-1.21,2.21-1.81,3.79-1.81s2.93.62,3.91,1.85c.69.87,1.04,1.96,1.06,3.27h-8.6c.02,1.11.38,2.02,1.06,2.73s1.53,1.07,2.54,1.07c.49,0,.96-.08,1.42-.25.46-.17.85-.39,1.17-.67.32-.28.67-.73,1.05-1.36ZM-459.82,261.2c-.16-.66-.4-1.18-.72-1.57-.31-.39-.73-.71-1.25-.95-.52-.24-1.06-.36-1.63-.36-.94,0-1.75.3-2.42.91-.49.44-.87,1.1-1.12,1.98h7.13Z"/>
    <path class="st2" d="M-440.69,257.14c1.47,0,2.69.53,3.66,1.6.88.97,1.32,2.12,1.32,3.45s-.46,2.5-1.4,3.5-2.13,1.5-3.59,1.5-2.67-.5-3.6-1.5-1.4-2.17-1.4-3.5.44-2.47,1.32-3.45c.97-1.07,2.19-1.61,3.67-1.61ZM-440.7,258.34c-1.02,0-1.9.38-2.64,1.13s-1.1,1.67-1.1,2.74c0,.69.17,1.34.5,1.93s.79,1.06,1.36,1.38c.57.32,1.2.49,1.88.49s1.31-.16,1.88-.49c.57-.33,1.02-.79,1.36-1.38s.5-1.24.5-1.93c0-1.07-.37-1.99-1.11-2.74-.74-.76-1.62-1.13-2.63-1.13Z"/>
    <path class="st2" d="M-421.16,259.37l-.98.61c-.84-1.12-1.99-1.68-3.45-1.68-1.17,0-2.13.38-2.9,1.12s-1.15,1.66-1.15,2.73c0,.7.18,1.35.53,1.97.35.62.84,1.09,1.46,1.43.62.34,1.31.51,2.08.51,1.4,0,2.55-.56,3.44-1.68l.98.64c-.46.69-1.07,1.22-1.84,1.6-.77.38-1.65.57-2.63.57-1.51,0-2.77-.48-3.76-1.44s-1.49-2.13-1.49-3.51c0-.93.23-1.79.7-2.58.47-.79,1.11-1.41,1.92-1.86s1.73-.67,2.73-.67c.63,0,1.24.1,1.83.29.59.19,1.09.45,1.5.76s.76.71,1.05,1.19Z"/>
    <path class="st2" d="M-411.28,257.14c1.47,0,2.69.53,3.66,1.6.88.97,1.32,2.12,1.32,3.45s-.46,2.5-1.4,3.5-2.13,1.5-3.59,1.5-2.67-.5-3.6-1.5-1.4-2.17-1.4-3.5.44-2.47,1.32-3.45c.97-1.07,2.19-1.61,3.67-1.61ZM-411.29,258.34c-1.02,0-1.9.38-2.64,1.13s-1.1,1.67-1.1,2.74c0,.69.17,1.34.5,1.93s.79,1.06,1.36,1.38c.57.32,1.2.49,1.88.49s1.31-.16,1.88-.49c.57-.33,1.02-.79,1.36-1.38s.5-1.24.5-1.93c0-1.07-.37-1.99-1.11-2.74-.74-.76-1.62-1.13-2.63-1.13Z"/>
    <path class="st2" d="M-399.44,261.39h.64c.41,0,.79-.13,1.13-.4.34-.27.51-.65.51-1.15,0-.43-.14-.79-.41-1.1-.27-.31-.7-.46-1.26-.46-.66,0-1.33.26-1.99.77l-.7-.85c.86-.72,1.78-1.08,2.74-1.08.8,0,1.46.24,2,.71.54.47.81,1.08.81,1.83,0,.99-.44,1.67-1.32,2.02,1.15.48,1.72,1.32,1.72,2.52,0,.76-.27,1.45-.8,2.06-.54.61-1.34.92-2.4.92-1.31,0-2.36-.42-3.16-1.27l.78-.88c.59.67,1.35,1,2.27,1,.62,0,1.11-.17,1.46-.5s.53-.77.53-1.32-.18-.96-.54-1.28-.78-.48-1.27-.48h-.76v-1.06Z"/>
    <path class="st2" d="M-383.64,262.34h-5.56v4.61h-1.23v-9.56h1.23v3.8h5.56v-3.8h1.23v9.56h-1.23v-4.61Z"/>
    <path class="st2" d="M-367.15,257.38v9.56h-1.21v-1.64c-.52.63-1.09,1.1-1.74,1.42-.64.32-1.34.47-2.1.47-1.35,0-2.51-.49-3.47-1.47-.96-.98-1.44-2.17-1.44-3.58s.48-2.55,1.45-3.53,2.13-1.47,3.49-1.47c.79,0,1.5.17,2.13.5.63.33,1.19.83,1.67,1.5v-1.76h1.21ZM-372.07,258.32c-.68,0-1.32.17-1.9.5-.58.34-1.04.81-1.38,1.42-.34.61-.51,1.25-.51,1.93s.17,1.32.52,1.93c.35.62.81,1.09,1.39,1.44s1.21.51,1.88.51,1.31-.17,1.91-.51c.6-.34,1.07-.8,1.39-1.38.33-.58.49-1.23.49-1.96,0-1.11-.36-2.03-1.09-2.77s-1.63-1.12-2.69-1.12Z"/>
    <path class="st2" d="M-354.6,262.34h-5.56v4.61h-1.23v-9.56h1.23v3.8h5.56v-3.8h1.23v9.56h-1.23v-4.61Z"/>
    <path class="st2" d="M-340.85,262.34h-5.56v4.61h-1.23v-9.56h1.23v3.8h5.56v-3.8h1.23v9.56h-1.23v-4.61Z"/>
    <path class="st2" d="M-329.36,257.14c1.47,0,2.69.53,3.66,1.6.88.97,1.32,2.12,1.32,3.45s-.46,2.5-1.4,3.5-2.13,1.5-3.59,1.5-2.67-.5-3.6-1.5-1.4-2.17-1.4-3.5.44-2.47,1.32-3.45c.97-1.07,2.19-1.61,3.67-1.61ZM-329.37,258.34c-1.02,0-1.9.38-2.64,1.13s-1.1,1.67-1.1,2.74c0,.69.17,1.34.5,1.93s.79,1.06,1.36,1.38c.57.32,1.2.49,1.88.49s1.31-.16,1.88-.49c.57-.33,1.02-.79,1.36-1.38s.5-1.24.5-1.93c0-1.07-.37-1.99-1.11-2.74-.74-.76-1.62-1.13-2.63-1.13Z"/>
    <path class="st2" d="M-317.88,258.46v8.48h-1.23v-9.56h4.83v1.08h-3.6Z"/>
    <path class="st2" d="M-305.1,257.14c1.47,0,2.69.53,3.66,1.6.88.97,1.32,2.12,1.32,3.45s-.46,2.5-1.4,3.5-2.13,1.5-3.59,1.5-2.67-.5-3.6-1.5-1.4-2.17-1.4-3.5.44-2.47,1.32-3.45c.97-1.07,2.19-1.61,3.67-1.61ZM-305.11,258.34c-1.02,0-1.9.38-2.64,1.13s-1.1,1.67-1.1,2.74c0,.69.17,1.34.5,1.93s.79,1.06,1.36,1.38c.57.32,1.2.49,1.88.49s1.31-.16,1.88-.49c.57-.33,1.02-.79,1.36-1.38s.5-1.24.5-1.93c0-1.07-.37-1.99-1.11-2.74-.74-.76-1.62-1.13-2.63-1.13Z"/>
    <path class="st2" d="M-286.89,257.38h8.02v9.56h-1.23v-8.4h-5.56v8.4h-1.23v-9.56Z"/>
    <path class="st2" d="M-271.9,257.38v7.08l7.02-7.08h.1v9.56h-1.23v-7.01l-6.97,7.01h-.15v-9.56h1.23Z"/>
    <path class="st2" d="M-260.12,257.38h6.29v1.06h-2.53v8.5h-1.23v-8.5h-2.53v-1.06Z"/>
    <path class="st2" d="M-239.65,257.38v9.56h-1.21v-1.64c-.52.63-1.09,1.1-1.74,1.42-.64.32-1.34.47-2.1.47-1.35,0-2.51-.49-3.47-1.47-.96-.98-1.44-2.17-1.44-3.58s.48-2.55,1.45-3.53,2.13-1.47,3.49-1.47c.79,0,1.5.17,2.13.5.63.33,1.19.83,1.67,1.5v-1.76h1.21ZM-244.56,258.32c-.68,0-1.32.17-1.9.5-.58.34-1.04.81-1.38,1.42-.34.61-.51,1.25-.51,1.93s.17,1.32.52,1.93c.35.62.81,1.09,1.39,1.44s1.21.51,1.88.51,1.31-.17,1.91-.51c.6-.34,1.07-.8,1.39-1.38.33-.58.49-1.23.49-1.96,0-1.11-.36-2.03-1.09-2.77s-1.63-1.12-2.69-1.12Z"/>
    <path class="st2" d="M-227.09,262.34h-5.56v4.61h-1.23v-9.56h1.23v3.8h5.56v-3.8h1.23v9.56h-1.23v-4.61Z"/>
    <path class="st2" d="M-218.9,257.38v7.08l7.02-7.08h.1v9.56h-1.23v-7.01l-6.97,7.01h-.15v-9.56h1.23Z"/>
    <path class="st2" d="M-202.02,262.66h-.88l-2.73,4.28h-1.33l2.88-4.4c-.72-.09-1.3-.36-1.74-.81-.45-.45-.67-1.02-.67-1.69,0-.84.26-1.5.77-1.96s1.19-.69,2.02-.69h2.91v9.56h-1.23v-4.28ZM-202.02,258.45h-.81c-.79,0-1.31.05-1.58.15s-.48.27-.64.51c-.16.24-.24.57-.24.98s.1.72.31.97c.21.26.43.41.69.47s.74.09,1.47.09h.81v-3.17Z"/>
  </g>
  <g id="GAx2FO1" data-name="GAx2FO">
    <path class="st1" d="M297.32,141.95l-.8-1.83c-.08-.19-.19-.3-.4-.3-.29,0-.27.21-.36.42l-1.15,2.49-1.36,2.49c-1.65,3.01-3.97,5.6-6.63,7.94l-1.19.99c-2.35,1.95-5.36,3.57-8.33,4.66-1.99.73-3.94,1.29-6.11,1.46-3.3.25-7.48.12-10.43-1.11l-3.26-1.35c-.19-.08-.31-.51-.31-.69l.03-2.68.09-.93.5-2.96c.46-1.96,1.3-3.77,2.24-5.59-.36-.49-.88-.77-1.35-1.12l-.68-.51c-.49-.57-1.04-1.02-1.59-1.54-.34-.32-.61-.66-.94-1.02l-.56-.6-1.73-2.26-1.38-2.09-1.11-2.25-.93-2.21-.72-2.63c-.09-.34.03-.73-.05-1.03-.18-.68-.08-1.2-.01-1.88l.09-1.01c.3-1.87,1.07-3.55,2.05-5.2.57-.96,1.11-1.85,1.85-2.71l1.68-1.93c.98-1.13,2.09-2.12,3.3-3.06l.82-.64,1.63-1.13c2.29-1.59,6.07-3.37,8.89-3.9,1.9-.36,3.74-.61,5.69-.43,1.21.11,2.41.25,3.55.61l1.5.46c.4-4.21,1.6-7.89,3.79-11.52l2.15-2.98c1-1.38,2.26-2.51,3.58-3.65l2.63-1.99,2.13-1.25c.65-.38,1.3-.73,2.04-.98,1.08.37,1.96.95,2.93,1.47,1.12.61,2.04,1.34,3.03,2.12,1.82,1.43,3.43,3.05,4.8,4.84l1.73,2.55,1.03,1.78c1.49,3.08,2.42,6.25,2.66,9.67l2.12-.65,3.18-.48h2.68c3.92.39,5.42,1.06,8.77,2.59l1.91,1.07,1.86,1.21,2.93,2.37,2.08,2.03.69.78.94,1.09,1.22,1.68,1.56,2.79c.6,1.08.88,2.28,1.06,3.49l.1.66-.02,2.28c0,1.26-.44,2.4-.85,3.62-.92,2.72-2.37,5.22-4.12,7.57l-1.09,1.27-.92,1.03-2.58,2.4-1.5,1.22c.85,1.58,1.6,3.13,2.01,4.82.3,1.26.64,2.44.73,3.73l.08,1.2v1.95c0,.37.06.77-.24,1.07s-.74.37-1.13.55c-2.2.97-4.45,1.8-6.91,1.93l-2.64.14-3.52-.17c-2.15-.1-6.29-1.52-8.33-2.53-1.48-.73-2.89-1.49-4.16-2.47l-2.56-1.97c-1.72-1.52-3.24-3.09-4.56-4.89l-1.03-1.41-1.96-3.32-.8-1.65ZM296.21,122.55c1.14.83,2.04,1.79,3.02,2.79l2.02-1.06c3.35-2.02,4.9-5.41,4.97-9.03.04-2.13.75-4.11,2.2-5.78l1.02-.93,2.03-1.2c.06-.88-.08-1.74-.26-2.61l-.24-1.18c-.38-1.9-.95-3.74-1.87-5.47l-.48-.9c-.87-1.64-1.84-3.14-3.06-4.58-.37-.44-.68-.83-1.09-1.26l-.81-.84c-.33-.34-.66-.63-1.03-.93l-2.28-1.85-.87-.52c-.79-.59-1.62-1.09-2.5-1.55-.6-.32-1.22-.26-1.78.05-.94.52-1.83,1.05-2.71,1.64l-1.13.76-1.43,1.14c-4.07,3.6-7.23,8.19-8.46,13.26-.27,1.11-.45,2.15-.6,3.29-.06.46-.24,1.09-.02,1.53l1.43.81c1.3.74,2.44,2.1,2.98,3.38.37.88.71,1.76.73,2.76.06,1.97.23,3.91,1.15,5.74.69,1.37,2.22,3.31,3.49,4l2.24,1.22,2.1-2.05.73-.55c.11-.08.37-.19.51-.1ZM272.34,134.58l2.75-1.21c.84-.37,1.66-.59,2.55-.87,3.59-1.15,7.26-1.88,11.06-2.11,1.38-.08,1.95-1.29,2.29-2.48-.03-.21-.44-.27-.6-.29-1.12-.48-2-1.12-3-1.79-1.88-1.51-3.57-3.24-4.7-5.29-.75-1.35-1.38-2.68-1.82-4.12-.6-1.97-1.06-4.45-1.09-6.45l-.03-2.16c-1.97-.8-3.38-1.17-5.56-1.31-.46-.03-.81-.11-1.3.01l-1.08.04c-1.65.17-3.16.57-4.7,1.05-.97.3-1.82.65-2.72,1.09l-1.81.9c-4.33,2.5-7.88,5.75-10.52,9.74-.62.94-1.19,1.83-1.55,2.88s-.68,2.13-.84,3.25c-.29,2.09.3,4.41,1.01,6.46.47,1.38,1.22,2.61,1.96,3.88,1.76,2.99,4.63,6.33,7.67,8.39.29-.63.66-1.03,1.03-1.5,1.44-1.84,3.15-3.37,5.14-4.75,1.84-1.27,3.73-2.44,5.85-3.38ZM331.9,144.24l1.22-.95,1.88-1.66c2.61-2.52,4.66-5.43,6.1-8.62.46-1.02.75-1.94,1.04-2.98.58-2.05.7-4.15.07-6.2-.29-.93-.52-1.77-1-2.64l-.82-1.5-1.08-1.53c-.71-1.01-1.47-1.93-2.36-2.81l-1.92-1.89-1.28-1.08-3.67-2.53-1-.5-1.78-.91c-.89-.45-1.84-.72-2.8-1.02l-.85-.26c-1.39-.42-2.78-.61-4.24-.66-.56-.02-1.1-.14-1.66.02-1.66.06-3.18.51-4.71,1.08-.16.03-.67.13-.66.32.11.87.03,1.66,0,2.51-.02.49,0,.91-.07,1.4-.35,2.78-1.06,5.46-2.38,8-.79,1.51-1.68,2.92-2.98,4.1l-2.1,1.9c-1.16.88-2.38,1.54-3.77,2.12l.53,1.17c.23.76.93,1.2,1.81,1.27l3.31.28c4.27.64,8.97,1.87,12.74,3.75l1.17.51,1.08.63c1.7.87,3.2,1.88,4.71,2.99l1.78,1.48c1.47,1.23,2.69,2.61,3.7,4.21ZM292.36,125.83c-1.43-.58-3.13-1.73-4.02-2.7-2.08-2.27-3.01-4.52-3.08-7.5-.04-1.52-.27-3.01-1.07-4.36l-.89-1.23c-.74-.78-1.6-1.38-2.61-1.88l.02,2.62c.48,4.99,1.63,8.79,5.26,12.72.78.85,1.66,1.52,2.61,2.21.85.61,1.76,1.09,2.86,1.39.37-.39.66-.79.93-1.27ZM308.2,121.06l.71-1.11.6-1.15c.93-1.79,1.39-3.67,1.73-5.61.29-1.67.44-3.27.31-5-2.48,1.19-3.84,3.14-4.35,5.59-.22,1.06-.13,2.08-.24,3.13-.13,1.2-.54,2.31-1.05,3.41-1.19,2.56-3.44,4.41-6.19,5.67.43.46.7.83.97,1.28,3.12-1.11,5.91-3.66,7.53-6.21ZM297.27,134.88l-.02-.7c-.02-.79-.21-1.51-.5-2.26l-.67-1.73c-.38-.98-.45-1.99-.27-3.03l.41-2.4c.07-.4.21-.81-.14-1.21-.96.55-1.71,1.24-2.34,2.05l-.72.94c-1.15,1.49-1.93,3.14-2.22,4.96-.39,2.47.5,5.16,2.69,6.68.58.4,1.31.59,1.99.72,1-.88,1.83-2.86,1.8-4.03ZM296.69,138.97c1.68-.54,3.18-1.51,3.92-3,.93-1.87.94-3.99.33-5.93l-.64-1.51c-.79-1.51-1.79-2.88-3.24-4.08l-.4,2.13c-.34,1.26-.23,2.47.27,3.67l.76,1.82c.77,2.1.48,4.29-.71,6.2-.14.22-.27.4-.29.7ZM325.91,159.56c2.97-.36,5.89-.91,8.43-2.37.14-2.21-.04-4.32-.6-6.44-.09-.76-.36-1.43-.62-2.15-.39-1.08-.78-2.16-1.49-3.14-1.51.91-2.88,1.86-4.48,2.44l-2.51.92c-1.78.65-4.39,1.11-6.27.88-4.12-.48-7.11-2.85-9.39-5.85l-.71-.94-.91-1.5c-.7-1.37-1.41-2.69-1.85-4.16l-.46-1.55c-.56-1.89-.83-3.6-2.93-4.84l.08,1.27c.09,1.47-.19,3.14-.93,4.45s-2.14,2.29-3.68,2.87c-.23.09-.38.21-.26.48l.59,1.33.77,1.63c1.52,3.21,3.76,6.05,6.35,8.65l.97.9c1.13,1.04,2.35,1.91,3.65,2.76,1.23.81,2.43,1.47,3.8,2.07s2.74,1.24,4.28,1.54l3.2.62.93.09,1.36.09c.44.03.96.04,1.42,0,.43-.03.82-.15,1.26-.06ZM257.88,157.19c1.34.79,2.64,1.31,4.09,1.65,1.31.31,2.58.58,3.93.7l.95.08h3.06c1.66-.01,3.18-.43,4.79-.8,1.26-.29,2.38-.77,3.55-1.26,7.95-3.34,13.97-10.46,16.79-17.83-.93-.27-1.74-.59-2.41-1.14s-1.31-1.07-1.69-1.81c-.99-1.79-1.29-3.74-.96-5.73-.34,0-.43.32-.61.47-.7.58-1.53,1.96-1.78,2.78l-.75,2.51c-.62,2.08-1.69,3.97-2.84,5.86l-2.1,2.65-1.31,1.23c-1.78,1.67-4.34,2.85-6.93,3.17-.72.09-1.34.04-2.06,0-1.51-.09-2.85-.46-4.25-.93-1.88-.63-3.6-1.4-5.25-2.43l-1.54-.97c-1.6,2.64-2.38,5.87-2.66,8.8v3ZM267.04,147.89c1.45.64,2.92.86,4.44,1.04.77.09,1.41.05,2.16,0,1.76-.13,3.25-.7,4.67-1.62,4.24-2.74,7-7.72,8.19-12.23.38-1.44,1.05-2.66,2.01-3.94l-3.72.47c-3.01.38-5.79,1.17-8.6,2.17-1.6.57-3.05,1.2-4.52,1.99l-1.88,1.01c-3.78,2.33-6.46,4.17-8.79,7.95.99.66,1.89,1.34,2.97,1.82l3.07,1.36ZM326.74,147.23c1.58-.68,3.03-1.47,4.44-2.49-.66-1.2-1.59-2.21-2.57-3.22-.92-.95-1.88-1.76-2.99-2.52-.8-.75-1.78-1.24-2.7-1.84-.64-.42-1.27-.76-1.97-1.12l-1.9-.97-3.34-1.36c-3.62-1.48-7.83-2.2-11.83-2.51l1.08,1.69.68,1.98c.57,2,1.23,3.94,2.24,5.79,1.07,1.96,2.37,3.71,4.05,5.27.71.66,1.54,1.13,2.38,1.67,1.15.75,2.52,1.18,3.96,1.28.8.21,1.56.12,2.36.01l2.03-.26c1.46-.31,2.75-.83,4.09-1.41Z"/>
  </g>
  <path class="st2" d="M105.18,208.24c.47-13.11,9.72-22.9,21.76-23.23,5.39-.2,10.58,1.66,15.24,5.32,3.26,2.6,2.93,5.59.2,6.92-.73.4-1.4.27-1.6-.53-1.8-7.52-5.72-11.12-13.44-11.12-9.38,0-17.71,9.32-17.71,24.09,0,12.65,6.99,20.97,17.77,22.43,6.39.87,13.05-2.13,16.84-7.99.53-.8.87-1.13,1.13-1.07.2.07.4.4-.27,1.26-4.13,6.32-10.85,9.78-18.04,9.25-13.18-.93-22.23-11.12-21.9-25.36Z"/>
  <path class="st2" d="M241.56,189.01c0,.27-.4.27-.4,0,0-2-2.6-2.79-4.53-2.79h-10.72v42.93c0,1.73,1.33,2.86,3.33,2.86.27,0,.27.4,0,.4h-10.32c-.27,0-.27-.4,0-.4,2,0,3.33-1.13,3.33-2.86v-42.93h-11.45c-1.93,0-4.53.8-4.53,2.79,0,.27-.4.27-.4,0v-3.26l1.53.07h34.15v3.19Z"/>
  <path class="st2" d="M338.27,229.21v3.19h-30.75c-.27,0-.27-.4,0-.4,2,0,3.06-2.6,3.06-4.53v-38.4c0-1.73-1.33-2.86-3.33-2.86-.27,0-.27-.4,0-.4h10.32c.27,0,.27.4,0,.4-2,0-3.33,1.13-3.33,2.86v42.93h19.1c1.93,0,4.53-.8,4.53-2.79,0-.27.4-.27.4,0Z"/>
  <path class="st2" d="M386.39,189.01c0,.27-.4.27-.4,0,0-2-2.6-2.79-4.53-2.79h-20.43v18.9h10.45c1.93,0,4.53-.8,4.53-2.8,0-.27.4-.27.4,0v5.99c0,.27-.4.27-.4,0,0-2-2.6-2.79-4.53-2.79h-10.45v26.49h20.43c1.93,0,4.53-.8,4.53-2.79,0-.27.4-.27.4,0v3.19h-32.08c-.27,0-.27-.4,0-.4,2,0,3.06-2.6,3.06-4.53v-36.74c0-1.93-1.06-4.53-3.06-4.53-.27,0-.27-.4,0-.4h32.08v3.19Z"/>
  <path class="st2" d="M440.1,186.21c-2,0-4.79,1-6.12,2.26l-12.31,19.57v21.1c0,1.73,1.33,2.86,3.33,2.86.27,0,.27.4,0,.4h-10.32c-.27,0-.27-.4,0-.4,2,0,3.33-1.13,3.33-2.86v-20.9l-12.31-19.97c-1.2-1.4-2.73-2.06-4.59-2.06-.27,0-.27-.4,0-.4h10.78c.27,0,.27.4,0,.4-2,0-2.66.47-1.8,2l11.25,18.5,11.38-18.44c1.13-1.8-.27-2.06-2.26-2.06-.27,0-.27-.4,0-.4h9.65c.27,0,.27.4,0,.4Z"/>
  <path class="st2" d="M489.91,232.56c-2,0-4.4-.66-5.26-2.46l-17.24-43.73h-5.73c-.26,0-.26.4,0,.4,1.74,0,2.67,1.2,3.13,2.66-5.26,13.65-10.51,27.29-15.77,40.94-.25.64-.49,1.28-.74,1.92-1.99,5.17-6.24,9.12-11.53,10.78-.89.29-1.34.44-1.34.48.01.02.18,0,.52-.07,5.95-1.23,10.85-5.43,13.08-11.08.27-.68.54-1.35.81-2.03.81-2.12,2.21-5.73,3.49-9.01,1.42-1.58,7.7-7.89,16.01-6.89,1.93.23,3.81.86,5.6,1.83l.8,1.96c1.64,4.01,3.63,8.57,5.12,12.32.27,1.46-1.19,1.99-3.12,1.99-.27,0-.27.4,0,.4h12.18c.26,0,.26-.4,0-.4ZM453.8,220.16c.52-1.35,1.01-2.59,1.4-3.6l.24-.63.02-.05c.02-.05.04-.12.08-.2l.51-1.32c2.08-5.42,8.85-22.94,9.1-23.59,2.94,7.51,6.53,17.24,9.51,24.83-1.69-.85-3.45-1.4-5.26-1.62-7.42-.89-13.23,3.85-15.6,6.18Z"/>
  <path class="st2" d="M298.48,232.68c-2,0-4.39-.67-5.26-2.47l-17.24-43.72h-5.72c-.27,0-.27.4,0,.4,1.73,0,2.66,1.19,3.13,2.66l-15.78,40.93c-.86,1.67-3.26,2.2-5.19,2.2-.27,0-.27.4,0,.4h8.92c.26,0,.26-.4,0-.4-2,0-3.4-.6-2.93-2.2,1.23-3.2,2.46-6.4,3.69-9.59,1.36-1.52,7.68-7.93,16.04-6.93,1.84.22,3.63.81,5.34,1.7l.36.91h-.03l.16.4,5.46,13.71c.26,1.47-1.2,2-3.13,2-.27,0-.27.4,0,.4h12.18c.26,0,.26-.4,0-.4ZM278.2,213.46c-7.44-.9-13.28,3.89-15.63,6.21.73-1.88,1.47-3.76,2.2-5.65h.01l8.94-23.15,9.48,24.07c-1.61-.77-3.29-1.28-5.01-1.49Z"/>
  <path class="st2" d="M201.82,232.01c-2,0-4.39-.67-5.26-2.47l-17.24-43.72h-5.72c-.27,0-.27.4,0,.4,1.73,0,2.66,1.19,3.13,2.66l-15.78,40.93c-.86,1.67-3.26,2.2-5.19,2.2-.27,0-.27.4,0,.4h8.92c.26,0,.26-.4,0-.4-2,0-3.4-.6-2.93-2.2,1.23-3.2,2.46-6.4,3.69-9.59,1.36-1.52,7.68-7.93,16.04-6.93,1.84.22,3.63.81,5.34,1.7l.36.91h-.03l.16.4,5.46,13.71c.26,1.47-1.2,2-3.13,2-.27,0-.27.4,0,.4h12.18c.26,0,.26-.4,0-.4ZM181.54,212.79c-7.44-.9-13.28,3.89-15.63,6.21.73-1.88,1.47-3.76,2.2-5.65h.01l8.94-23.15,9.48,24.07c-1.61-.77-3.29-1.28-5.01-1.49Z"/>
  <g>
    <path class="st2" d="M137.63,254.84h1.23v4.03l4.43-4.03h1.71l-4.85,4.38,5.23,5.19h-1.74l-4.4-4.42-.39.34v4.08h-1.23v-9.56Z"/>
    <path class="st2" d="M159.18,254.84v9.56h-1.21v-1.64c-.52.63-1.09,1.1-1.74,1.42-.64.32-1.34.47-2.1.47-1.35,0-2.51-.49-3.47-1.47-.96-.98-1.44-2.17-1.44-3.58s.48-2.55,1.45-3.53,2.13-1.47,3.49-1.47c.79,0,1.49.17,2.13.5.63.33,1.19.83,1.67,1.5v-1.76h1.21ZM154.26,255.78c-.68,0-1.32.17-1.89.5-.58.34-1.04.81-1.38,1.42-.34.61-.51,1.25-.51,1.93s.17,1.32.52,1.93c.35.62.81,1.09,1.39,1.44s1.21.51,1.88.51,1.31-.17,1.91-.51c.6-.34,1.07-.8,1.39-1.38.33-.58.49-1.23.49-1.96,0-1.11-.37-2.03-1.09-2.77s-1.62-1.12-2.69-1.12Z"/>
    <path class="st2" d="M172.69,251.15h1.23v5.13c.77-1.09,1.87-1.64,3.31-1.64s2.55.47,3.49,1.42c.94.94,1.41,2.15,1.41,3.63s-.47,2.66-1.42,3.59-2.1,1.41-3.45,1.41c-1.48,0-2.59-.58-3.35-1.72v4.93h-1.23v-4.93c-.74,1.16-1.87,1.73-3.38,1.73-1.32,0-2.46-.47-3.41-1.41-.95-.94-1.43-2.14-1.43-3.6s.47-2.69,1.41-3.63c.94-.94,2.11-1.42,3.49-1.42,1.47,0,2.57.55,3.31,1.64v-5.13ZM165.72,259.63c0,1.07.34,1.98,1.03,2.74s1.61,1.14,2.76,1.14c.4,0,.83-.1,1.28-.3.46-.2.82-.46,1.1-.76.28-.31.49-.66.63-1.07s.21-1,.21-1.78c0-1.24-.32-2.19-.97-2.85-.64-.66-1.42-.99-2.33-.99-1.03,0-1.9.37-2.62,1.1-.72.73-1.09,1.66-1.09,2.77ZM173.88,259.85c0,1.14.33,2.04.97,2.69.65.65,1.4.98,2.24.98,1.15,0,2.07-.38,2.76-1.14.69-.76,1.04-1.68,1.04-2.75s-.37-2.03-1.09-2.76-1.6-1.1-2.62-1.1c-.92,0-1.7.33-2.34.98-.64.65-.96,1.69-.96,3.11Z"/>
    <path class="st2" d="M195.45,261.23l1.04.54c-.34.67-.73,1.21-1.18,1.62-.45.41-.95.72-1.51.94-.56.21-1.19.32-1.89.32-1.56,0-2.78-.51-3.66-1.53-.88-1.02-1.32-2.18-1.32-3.47,0-1.21.37-2.29,1.12-3.24.94-1.21,2.21-1.81,3.79-1.81s2.93.62,3.91,1.85c.69.87,1.04,1.96,1.05,3.27h-8.6c.02,1.11.38,2.02,1.06,2.73.69.71,1.53,1.07,2.54,1.07.49,0,.96-.08,1.42-.25.46-.17.85-.39,1.17-.67s.67-.73,1.05-1.36ZM195.45,258.66c-.16-.66-.4-1.18-.72-1.57s-.73-.71-1.25-.95c-.52-.24-1.06-.36-1.63-.36-.94,0-1.75.3-2.42.91-.49.44-.87,1.1-1.12,1.98h7.13Z"/>
    <path class="st2" d="M214.59,254.6c1.47,0,2.69.53,3.66,1.6.88.97,1.32,2.12,1.32,3.45s-.46,2.5-1.39,3.5c-.93,1-2.13,1.5-3.59,1.5s-2.67-.5-3.6-1.5c-.93-1-1.39-2.17-1.39-3.5s.44-2.47,1.32-3.45c.97-1.07,2.19-1.61,3.67-1.61ZM214.58,255.8c-1.02,0-1.9.38-2.64,1.13-.73.76-1.1,1.67-1.1,2.74,0,.69.17,1.34.5,1.93.34.6.79,1.06,1.36,1.38.57.32,1.2.49,1.88.49s1.31-.16,1.88-.49c.57-.33,1.02-.79,1.36-1.38.33-.6.5-1.24.5-1.93,0-1.07-.37-1.99-1.11-2.74-.74-.76-1.62-1.13-2.63-1.13Z"/>
    <path class="st2" d="M234.11,256.83l-.97.61c-.84-1.12-1.99-1.68-3.45-1.68-1.16,0-2.13.38-2.9,1.12s-1.15,1.66-1.15,2.73c0,.7.18,1.35.53,1.97.35.62.84,1.09,1.46,1.43.62.34,1.31.51,2.08.51,1.4,0,2.55-.56,3.44-1.68l.97.64c-.46.69-1.07,1.22-1.84,1.6-.77.38-1.65.57-2.63.57-1.51,0-2.77-.48-3.76-1.44s-1.49-2.13-1.49-3.51c0-.93.23-1.79.7-2.58.47-.79,1.11-1.41,1.92-1.86s1.72-.67,2.73-.67c.63,0,1.24.1,1.83.29.59.19,1.09.45,1.5.76s.76.71,1.04,1.19Z"/>
    <path class="st2" d="M243.99,254.6c1.47,0,2.7.53,3.66,1.6.88.97,1.32,2.12,1.32,3.45s-.46,2.5-1.4,3.5c-.93,1-2.12,1.5-3.59,1.5s-2.67-.5-3.6-1.5c-.93-1-1.4-2.17-1.4-3.5s.44-2.47,1.32-3.45c.97-1.07,2.19-1.61,3.67-1.61ZM243.99,255.8c-1.02,0-1.9.38-2.64,1.13-.74.76-1.1,1.67-1.1,2.74,0,.69.17,1.34.5,1.93.33.6.79,1.06,1.36,1.38.57.32,1.2.49,1.88.49s1.31-.16,1.88-.49c.57-.33,1.02-.79,1.36-1.38.34-.6.5-1.24.5-1.93,0-1.07-.37-1.99-1.11-2.74s-1.62-1.13-2.63-1.13Z"/>
    <path class="st2" d="M255.84,258.85h.64c.41,0,.79-.13,1.13-.4.34-.27.51-.65.51-1.15,0-.43-.14-.79-.41-1.1s-.7-.46-1.26-.46c-.66,0-1.33.26-1.99.77l-.7-.85c.86-.72,1.78-1.08,2.74-1.08.8,0,1.46.24,2,.71.54.47.81,1.08.81,1.83,0,.99-.44,1.67-1.32,2.02,1.15.48,1.72,1.32,1.72,2.52,0,.76-.27,1.45-.8,2.06-.54.61-1.34.92-2.4.92-1.31,0-2.36-.42-3.15-1.27l.78-.88c.59.67,1.35,1,2.27,1,.62,0,1.11-.17,1.46-.5.35-.33.53-.77.53-1.32s-.18-.96-.54-1.28-.78-.48-1.27-.48h-.76v-1.06Z"/>
    <path class="st2" d="M271.63,259.8h-5.56v4.61h-1.23v-9.56h1.23v3.8h5.56v-3.8h1.23v9.56h-1.23v-4.61Z"/>
    <path class="st2" d="M288.12,254.84v9.56h-1.21v-1.64c-.52.63-1.09,1.1-1.74,1.42-.64.32-1.34.47-2.1.47-1.35,0-2.51-.49-3.47-1.47-.96-.98-1.44-2.17-1.44-3.58s.48-2.55,1.45-3.53,2.13-1.47,3.49-1.47c.79,0,1.49.17,2.13.5.63.33,1.19.83,1.67,1.5v-1.76h1.21ZM283.2,255.78c-.68,0-1.32.17-1.89.5-.58.34-1.04.81-1.38,1.42-.34.61-.51,1.25-.51,1.93s.17,1.32.52,1.93c.35.62.81,1.09,1.39,1.44s1.21.51,1.88.51,1.31-.17,1.91-.51c.6-.34,1.07-.8,1.39-1.38.33-.58.49-1.23.49-1.96,0-1.11-.37-2.03-1.09-2.77s-1.62-1.12-2.69-1.12Z"/>
    <path class="st2" d="M300.67,259.8h-5.56v4.61h-1.23v-9.56h1.23v3.8h5.56v-3.8h1.23v9.56h-1.23v-4.61Z"/>
    <path class="st2" d="M314.43,259.8h-5.56v4.61h-1.23v-9.56h1.23v3.8h5.56v-3.8h1.23v9.56h-1.23v-4.61Z"/>
    <path class="st2" d="M325.91,254.6c1.47,0,2.69.53,3.66,1.6.88.97,1.32,2.12,1.32,3.45s-.46,2.5-1.39,3.5c-.93,1-2.13,1.5-3.59,1.5s-2.67-.5-3.6-1.5c-.93-1-1.39-2.17-1.39-3.5s.44-2.47,1.32-3.45c.97-1.07,2.19-1.61,3.67-1.61ZM325.91,255.8c-1.02,0-1.9.38-2.64,1.13-.73.76-1.1,1.67-1.1,2.74,0,.69.17,1.34.5,1.93.34.6.79,1.06,1.36,1.38.57.32,1.2.49,1.88.49s1.31-.16,1.88-.49c.57-.33,1.02-.79,1.36-1.38.33-.6.5-1.24.5-1.93,0-1.07-.37-1.99-1.11-2.74-.74-.76-1.62-1.13-2.63-1.13Z"/>
    <path class="st2" d="M337.39,255.92v8.48h-1.23v-9.56h4.83v1.08h-3.6Z"/>
    <path class="st2" d="M350.17,254.6c1.47,0,2.69.53,3.66,1.6.88.97,1.32,2.12,1.32,3.45s-.46,2.5-1.39,3.5c-.93,1-2.13,1.5-3.59,1.5s-2.67-.5-3.6-1.5c-.93-1-1.39-2.17-1.39-3.5s.44-2.47,1.32-3.45c.97-1.07,2.19-1.61,3.67-1.61ZM350.17,255.8c-1.02,0-1.9.38-2.64,1.13-.73.76-1.1,1.67-1.1,2.74,0,.69.17,1.34.5,1.93.34.6.79,1.06,1.36,1.38.57.32,1.2.49,1.88.49s1.31-.16,1.88-.49c.57-.33,1.02-.79,1.36-1.38.33-.6.5-1.24.5-1.93,0-1.07-.37-1.99-1.11-2.74-.74-.76-1.62-1.13-2.63-1.13Z"/>
    <path class="st2" d="M368.39,254.84h8.02v9.56h-1.23v-8.4h-5.56v8.4h-1.23v-9.56Z"/>
    <path class="st2" d="M383.38,254.84v7.08l7.02-7.08h.1v9.56h-1.23v-7.01l-6.97,7.01h-.15v-9.56h1.23Z"/>
    <path class="st2" d="M395.15,254.84h6.29v1.06h-2.53v8.5h-1.23v-8.5h-2.53v-1.06Z"/>
    <path class="st2" d="M415.63,254.84v9.56h-1.21v-1.64c-.52.63-1.09,1.1-1.74,1.42-.64.32-1.34.47-2.11.47-1.35,0-2.51-.49-3.47-1.47-.96-.98-1.44-2.17-1.44-3.58s.48-2.55,1.45-3.53,2.13-1.47,3.49-1.47c.79,0,1.5.17,2.13.5.63.33,1.19.83,1.67,1.5v-1.76h1.21ZM410.71,255.78c-.69,0-1.32.17-1.9.5s-1.04.81-1.38,1.42-.51,1.25-.51,1.93.17,1.32.52,1.93c.35.62.81,1.09,1.39,1.44s1.21.51,1.88.51,1.31-.17,1.91-.51c.6-.34,1.07-.8,1.39-1.38.32-.58.49-1.23.49-1.96,0-1.11-.36-2.03-1.09-2.77s-1.63-1.12-2.69-1.12Z"/>
    <path class="st2" d="M428.18,259.8h-5.56v4.61h-1.23v-9.56h1.23v3.8h5.56v-3.8h1.23v9.56h-1.23v-4.61Z"/>
    <path class="st2" d="M436.37,254.84v7.08l7.02-7.08h.1v9.56h-1.23v-7.01l-6.97,7.01h-.15v-9.56h1.23Z"/>
    <path class="st2" d="M453.26,260.12h-.88l-2.73,4.28h-1.33l2.88-4.4c-.72-.09-1.3-.36-1.74-.81-.45-.45-.67-1.02-.67-1.69,0-.84.26-1.5.77-1.96.51-.46,1.19-.69,2.02-.69h2.91v9.56h-1.23v-4.28ZM453.26,255.91h-.81c-.79,0-1.31.05-1.58.15s-.48.27-.64.51c-.16.24-.24.57-.24.98s.1.72.31.97c.21.26.43.41.69.47s.74.09,1.47.09h.81v-3.17Z"/>
  </g>
</svg>