<?xml version="1.0" encoding="UTF-8"?>
<svg id="_Слой_1" data-name="Слой_1" xmlns="http://www.w3.org/2000/svg" version="1.1" viewBox="0 0 595.28 419.53">
  <!-- Generator: Adobe Illustrator 30.4.0, SVG Export Plug-In . SVG Version: 2.1.4 Build 226)  -->
  <defs>
    <style>
      .st0 {
        fill: #fff8ef;
      }

      .st1 {
        fill: #96843b;
      }

      .st2 {
        fill: #2b3d22;
      }
    </style>
  </defs>
  <path class="st1" d="M-356.37,145.85l-.8-1.83c-.08-.19-.19-.3-.4-.3-.29,0-.27.21-.36.42l-1.15,2.49-1.36,2.49c-1.65,3.01-3.97,5.6-6.63,7.94l-1.19.99c-2.35,1.95-5.36,3.57-8.33,4.66-1.99.73-3.94,1.29-6.11,1.46-3.3.25-7.48.12-10.43-1.11l-3.26-1.35c-.19-.08-.31-.51-.31-.69l.03-2.68.09-.93.5-2.96c.46-1.96,1.3-3.77,2.24-5.59-.36-.49-.88-.77-1.35-1.12l-.68-.51c-.49-.57-1.04-1.02-1.59-1.54-.34-.32-.61-.66-.94-1.02l-.56-.6-1.73-2.26-1.38-2.09-1.11-2.25-.93-2.21-.72-2.63c-.09-.34.03-.73-.05-1.03-.18-.68-.08-1.2-.01-1.88l.09-1.01c.3-1.87,1.07-3.55,2.05-5.2.57-.96,1.11-1.85,1.85-2.71l1.68-1.93c.98-1.13,2.09-2.12,3.3-3.06l.82-.64,1.63-1.13c2.29-1.59,6.07-3.37,8.89-3.9,1.9-.36,3.74-.61,5.69-.43,1.21.11,2.41.25,3.55.61l1.5.46c.4-4.21,1.6-7.89,3.79-11.52l2.15-2.98c1-1.38,2.26-2.51,3.58-3.65l2.63-1.99,2.13-1.25c.65-.38,1.3-.73,2.04-.98,1.08.37,1.96.95,2.93,1.47,1.12.61,2.04,1.34,3.03,2.12,1.82,1.43,3.43,3.05,4.8,4.84l1.73,2.55,1.03,1.78c1.49,3.08,2.42,6.25,2.66,9.67l2.12-.65,3.18-.48h2.68c3.92.39,5.42,1.06,8.77,2.59l1.91,1.07,1.86,1.21,2.93,2.37,2.08,2.03.69.78.94,1.09,1.22,1.68,1.56,2.79c.6,1.08.88,2.28,1.06,3.49l.1.66-.02,2.28c0,1.26-.44,2.4-.85,3.62-.92,2.72-2.37,5.22-4.12,7.57l-1.09,1.27-.92,1.03-2.58,2.4-1.5,1.22c.85,1.58,1.6,3.13,2.01,4.82.3,1.26.64,2.44.73,3.73l.08,1.2v1.95c0,.37.06.77-.24,1.07s-.74.37-1.13.55c-2.2.97-4.45,1.8-6.91,1.93l-2.64.14-3.52-.17c-2.15-.1-6.29-1.52-8.33-2.53-1.48-.73-2.89-1.49-4.16-2.47l-2.56-1.97c-1.72-1.52-3.24-3.09-4.56-4.89l-1.03-1.41-1.96-3.32-.8-1.65ZM-357.48,126.45c1.14.83,2.04,1.79,3.02,2.79l2.02-1.06c3.35-2.02,4.9-5.41,4.97-9.03.04-2.13.75-4.11,2.2-5.78l1.02-.93,2.03-1.2c.06-.88-.08-1.74-.26-2.61l-.24-1.18c-.38-1.9-.95-3.74-1.87-5.47l-.48-.9c-.87-1.64-1.84-3.14-3.06-4.58-.37-.44-.68-.83-1.09-1.26l-.81-.84c-.33-.34-.66-.63-1.03-.93l-2.28-1.85-.87-.52c-.79-.59-1.62-1.09-2.5-1.55-.6-.32-1.22-.26-1.78.05-.94.52-1.83,1.05-2.71,1.64l-1.13.76-1.43,1.14c-4.07,3.6-7.23,8.19-8.46,13.26-.27,1.11-.45,2.15-.6,3.29-.06.46-.24,1.09-.02,1.53l1.43.81c1.3.74,2.44,2.1,2.98,3.38.37.88.71,1.76.73,2.76.06,1.97.23,3.91,1.15,5.74.69,1.37,2.22,3.31,3.49,4l2.24,1.22,2.1-2.05.73-.55c.11-.08.37-.19.51-.1ZM-381.36,138.47l2.75-1.21c.84-.37,1.66-.59,2.55-.87,3.59-1.15,7.26-1.88,11.06-2.11,1.38-.08,1.95-1.29,2.29-2.48-.03-.21-.44-.27-.6-.29-1.12-.48-2-1.12-3-1.79-1.88-1.51-3.57-3.24-4.7-5.29-.75-1.35-1.38-2.68-1.82-4.12-.6-1.97-1.06-4.45-1.09-6.45l-.03-2.16c-1.97-.8-3.38-1.17-5.56-1.31-.46-.03-.81-.11-1.3.01l-1.08.04c-1.65.17-3.16.57-4.7,1.05-.97.3-1.82.65-2.72,1.09l-1.81.9c-4.33,2.5-7.88,5.75-10.52,9.74-.62.94-1.19,1.83-1.55,2.88s-.68,2.13-.84,3.25c-.29,2.09.3,4.41,1.01,6.46.47,1.38,1.22,2.61,1.96,3.88,1.76,2.99,4.63,6.33,7.67,8.39.29-.63.66-1.03,1.03-1.5,1.44-1.84,3.15-3.37,5.14-4.75,1.84-1.27,3.73-2.44,5.85-3.38ZM-321.79,148.14l1.22-.95,1.88-1.66c2.61-2.52,4.66-5.43,6.1-8.62.46-1.02.75-1.94,1.04-2.98.58-2.05.7-4.15.07-6.2-.29-.93-.52-1.77-1-2.64l-.82-1.5-1.08-1.53c-.71-1.01-1.47-1.93-2.36-2.81l-1.92-1.89-1.28-1.08-3.67-2.53-1-.5-1.78-.91c-.89-.45-1.84-.72-2.8-1.02l-.85-.26c-1.39-.42-2.78-.61-4.24-.66-.56-.02-1.1-.14-1.66.02-1.66.06-3.18.51-4.71,1.08-.16.03-.67.13-.66.32.11.87.03,1.66,0,2.51-.02.49,0,.91-.07,1.4-.35,2.78-1.06,5.46-2.38,8-.79,1.51-1.68,2.92-2.98,4.1l-2.1,1.9c-1.16.88-2.38,1.54-3.77,2.12l.53,1.17c.23.76.93,1.2,1.81,1.27l3.31.28c4.27.64,8.97,1.87,12.74,3.75l1.17.51,1.08.63c1.7.87,3.2,1.88,4.71,2.99l1.78,1.48c1.47,1.23,2.69,2.61,3.7,4.21ZM-361.33,129.73c-1.43-.58-3.13-1.73-4.02-2.7-2.08-2.27-3.01-4.52-3.08-7.5-.04-1.52-.27-3.01-1.07-4.36l-.89-1.23c-.74-.78-1.6-1.38-2.61-1.88l.02,2.62c.48,4.99,1.63,8.79,5.26,12.72.78.85,1.66,1.52,2.61,2.21.85.61,1.76,1.09,2.86,1.39.37-.39.66-.79.93-1.27ZM-345.5,124.96l.71-1.11.6-1.15c.93-1.79,1.39-3.67,1.73-5.61.29-1.67.44-3.27.31-5-2.48,1.19-3.84,3.14-4.35,5.59-.22,1.06-.13,2.08-.24,3.13-.13,1.2-.54,2.31-1.05,3.41-1.19,2.56-3.44,4.41-6.19,5.67.43.46.7.83.97,1.28,3.12-1.11,5.91-3.66,7.53-6.21ZM-356.43,138.78l-.02-.7c-.02-.79-.21-1.51-.5-2.26l-.67-1.73c-.38-.98-.45-1.99-.27-3.03l.41-2.4c.07-.4.21-.81-.14-1.21-.96.55-1.71,1.24-2.34,2.05l-.72.94c-1.15,1.49-1.93,3.14-2.22,4.96-.39,2.47.5,5.16,2.69,6.68.58.4,1.31.59,1.99.72,1-.88,1.83-2.86,1.8-4.03ZM-357.01,142.87c1.68-.54,3.18-1.51,3.92-3,.93-1.87.94-3.99.33-5.93l-.64-1.51c-.79-1.51-1.79-2.88-3.24-4.08l-.4,2.13c-.34,1.26-.23,2.47.27,3.67l.76,1.82c.77,2.1.48,4.29-.71,6.2-.14.22-.27.4-.29.7ZM-327.79,163.46c2.97-.36,5.89-.91,8.43-2.37.14-2.21-.04-4.32-.6-6.44-.09-.76-.36-1.43-.62-2.15-.39-1.08-.78-2.16-1.49-3.14-1.51.91-2.88,1.86-4.48,2.44l-2.51.92c-1.78.65-4.39,1.11-6.27.88-4.12-.48-7.11-2.85-9.39-5.85l-.71-.94-.91-1.5c-.7-1.37-1.41-2.69-1.85-4.16l-.46-1.55c-.56-1.89-.83-3.6-2.93-4.84l.08,1.27c.09,1.47-.19,3.14-.93,4.45s-2.14,2.29-3.68,2.87c-.23.09-.38.21-.26.48l.59,1.33.77,1.63c1.52,3.21,3.76,6.05,6.35,8.65l.97.9c1.13,1.04,2.35,1.91,3.65,2.76,1.23.81,2.43,1.47,3.8,2.07s2.74,1.24,4.28,1.54l3.2.62.93.09,1.36.09c.44.03.96.04,1.42,0,.43-.03.82-.15,1.26-.06ZM-395.81,161.08c1.34.79,2.64,1.31,4.09,1.65,1.31.31,2.58.58,3.93.7l.95.08h3.06c1.66-.01,3.18-.43,4.79-.8,1.26-.29,2.38-.77,3.55-1.26,7.95-3.34,13.97-10.46,16.79-17.83-.93-.27-1.74-.59-2.41-1.14s-1.31-1.07-1.69-1.81c-.99-1.79-1.29-3.74-.96-5.73-.34,0-.43.32-.61.47-.7.58-1.53,1.96-1.78,2.78l-.75,2.51c-.62,2.08-1.69,3.97-2.84,5.86l-2.1,2.65-1.31,1.23c-1.78,1.67-4.34,2.85-6.93,3.17-.72.09-1.34.04-2.06,0-1.51-.09-2.85-.46-4.25-.93-1.88-.63-3.6-1.4-5.25-2.43l-1.54-.97c-1.6,2.64-2.38,5.87-2.66,8.8v3ZM-386.66,151.78c1.45.64,2.92.86,4.44,1.04.77.09,1.41.05,2.16,0,1.76-.13,3.25-.7,4.67-1.62,4.24-2.74,7-7.72,8.19-12.23.38-1.44,1.05-2.66,2.01-3.94l-3.72.47c-3.01.38-5.79,1.17-8.6,2.17-1.6.57-3.05,1.2-4.52,1.99l-1.88,1.01c-3.78,2.33-6.46,4.17-8.79,7.95.99.66,1.89,1.34,2.97,1.82l3.07,1.36ZM-326.95,151.12c1.58-.68,3.03-1.47,4.44-2.49-.66-1.2-1.59-2.21-2.57-3.22-.92-.95-1.88-1.76-2.99-2.52-.8-.75-1.78-1.24-2.7-1.84-.64-.42-1.27-.76-1.97-1.12l-1.9-.97-3.34-1.36c-3.62-1.48-7.83-2.2-11.83-2.51l1.08,1.69.68,1.98c.57,2,1.23,3.94,2.24,5.79,1.07,1.96,2.37,3.71,4.05,5.27.71.66,1.54,1.13,2.38,1.67,1.15.75,2.52,1.18,3.96,1.28.8.21,1.56.12,2.36.01l2.03-.26c1.46-.31,2.75-.83,4.09-1.41Z"/>
  <path class="st2" d="M-548.52,212.14c.47-13.11,9.72-22.9,21.76-23.23,5.39-.2,10.58,1.66,15.24,5.32,3.26,2.6,2.93,5.59.2,6.92-.73.4-1.4.27-1.6-.53-1.8-7.52-5.72-11.12-13.44-11.12-9.38,0-17.71,9.32-17.71,24.09,0,12.65,6.99,20.97,17.77,22.43,6.39.87,13.05-2.13,16.84-7.99.53-.8.87-1.13,1.13-1.07.2.07.4.4-.27,1.26-4.13,6.32-10.85,9.78-18.04,9.25-13.18-.93-22.23-11.12-21.9-25.36Z"/>
  <path class="st2" d="M-412.14,192.91c0,.27-.4.27-.4,0,0-2-2.6-2.79-4.53-2.79h-10.72v42.93c0,1.73,1.33,2.86,3.33,2.86.27,0,.27.4,0,.4h-10.32c-.27,0-.27-.4,0-.4,2,0,3.33-1.13,3.33-2.86v-42.93h-11.45c-1.93,0-4.53.8-4.53,2.79,0,.27-.4.27-.4,0v-3.26l1.53.07h34.15v3.19Z"/>
  <path class="st2" d="M-315.43,233.11v3.19h-30.75c-.27,0-.27-.4,0-.4,2,0,3.06-2.6,3.06-4.53v-38.4c0-1.73-1.33-2.86-3.33-2.86-.27,0-.27-.4,0-.4h10.32c.27,0,.27.4,0,.4-2,0-3.33,1.13-3.33,2.86v42.93h19.1c1.93,0,4.53-.8,4.53-2.79,0-.27.4-.27.4,0Z"/>
  <path class="st2" d="M-267.3,192.91c0,.27-.4.27-.4,0,0-2-2.6-2.79-4.53-2.79h-20.43v18.9h10.45c1.93,0,4.53-.8,4.53-2.8,0-.27.4-.27.4,0v5.99c0,.27-.4.27-.4,0,0-2-2.6-2.79-4.53-2.79h-10.45v26.49h20.43c1.93,0,4.53-.8,4.53-2.79,0-.27.4-.27.4,0v3.19h-32.08c-.27,0-.27-.4,0-.4,2,0,3.06-2.6,3.06-4.53v-36.74c0-1.93-1.06-4.53-3.06-4.53-.27,0-.27-.4,0-.4h32.08v3.19Z"/>
  <path class="st2" d="M-213.59,190.11c-2,0-4.79,1-6.12,2.26l-12.31,19.57v21.1c0,1.73,1.33,2.86,3.33,2.86.27,0,.27.4,0,.4h-10.32c-.27,0-.27-.4,0-.4,2,0,3.33-1.13,3.33-2.86v-20.9l-12.31-19.97c-1.2-1.4-2.73-2.06-4.59-2.06-.27,0-.27-.4,0-.4h10.78c.27,0,.27.4,0,.4-2,0-2.66.47-1.8,2l11.25,18.5,11.38-18.44c1.13-1.8-.27-2.06-2.26-2.06-.27,0-.27-.4,0-.4h9.65c.27,0,.27.4,0,.4Z"/>
  <path class="st2" d="M-163.78,236.46c-2,0-4.4-.66-5.26-2.46l-17.24-43.73h-5.73c-.26,0-.26.4,0,.4,1.74,0,2.67,1.2,3.13,2.66-5.26,13.65-10.51,27.29-15.77,40.94-.25.64-.49,1.28-.74,1.92-1.99,5.17-6.24,9.12-11.53,10.78-.89.29-1.34.44-1.34.48.01.02.18,0,.52-.07,5.95-1.23,10.85-5.43,13.08-11.08.27-.68.54-1.35.81-2.03.81-2.12,2.21-5.73,3.49-9.01,1.42-1.58,7.7-7.89,16.01-6.89,1.93.23,3.81.86,5.6,1.83l.8,1.96c1.64,4.01,3.63,8.57,5.12,12.32.27,1.46-1.19,1.99-3.12,1.99-.27,0-.27.4,0,.4h12.18c.26,0,.26-.4,0-.4ZM-199.89,224.05c.52-1.35,1.01-2.59,1.4-3.6l.24-.63.02-.05c.02-.05.04-.12.08-.2l.51-1.32c2.08-5.42,8.85-22.94,9.1-23.59,2.94,7.51,6.53,17.24,9.51,24.83-1.69-.85-3.45-1.4-5.26-1.62-7.42-.89-13.23,3.85-15.6,6.18Z"/>
  <path class="st2" d="M-355.22,236.58c-2,0-4.39-.67-5.26-2.47l-17.24-43.72h-5.72c-.27,0-.27.4,0,.4,1.73,0,2.66,1.19,3.13,2.66l-15.78,40.93c-.86,1.67-3.26,2.2-5.19,2.2-.27,0-.27.4,0,.4h8.92c.26,0,.26-.4,0-.4-2,0-3.4-.6-2.93-2.2,1.23-3.2,2.46-6.4,3.69-9.59,1.36-1.52,7.68-7.93,16.04-6.93,1.84.22,3.63.81,5.34,1.7l.36.91h-.03l.16.4,5.46,13.71c.26,1.47-1.2,2-3.13,2-.27,0-.27.4,0,.4h12.18c.26,0,.26-.4,0-.4ZM-375.5,217.36c-7.44-.9-13.28,3.89-15.63,6.21.73-1.88,1.47-3.76,2.2-5.65h.01l8.94-23.15,9.48,24.07c-1.61-.77-3.29-1.28-5.01-1.49Z"/>
  <path class="st2" d="M-451.87,235.9c-2,0-4.39-.67-5.26-2.47l-17.24-43.72h-5.72c-.27,0-.27.4,0,.4,1.73,0,2.66,1.19,3.13,2.66l-15.78,40.93c-.86,1.67-3.26,2.2-5.19,2.2-.27,0-.27.4,0,.4h8.92c.26,0,.26-.4,0-.4-2,0-3.4-.6-2.93-2.2,1.23-3.2,2.46-6.4,3.69-9.59,1.36-1.52,7.68-7.93,16.04-6.93,1.84.22,3.63.81,5.34,1.7l.36.91h-.03l.16.4,5.46,13.71c.26,1.47-1.2,2-3.13,2-.27,0-.27.4,0,.4h12.18c.26,0,.26-.4,0-.4ZM-472.16,216.69c-7.44-.9-13.28,3.89-15.63,6.21.73-1.88,1.47-3.76,2.2-5.65h.01l8.94-23.15,9.48,24.07c-1.61-.77-3.29-1.28-5.01-1.49Z"/>
  <rect class="st2" x="-5.36" y="-2.82" width="605.85" height="425.22"/>
  <path class="st1" d="M298.92,145.69l-.8-1.83c-.08-.19-.19-.3-.4-.3-.29,0-.27.21-.36.42l-1.15,2.49-1.36,2.49c-1.65,3.01-3.97,5.6-6.63,7.94l-1.19.99c-2.35,1.95-5.36,3.57-8.33,4.66-1.99.73-3.94,1.29-6.11,1.46-3.3.25-7.48.12-10.43-1.11l-3.26-1.35c-.19-.08-.31-.51-.31-.69l.03-2.68.09-.93.5-2.96c.46-1.96,1.3-3.77,2.24-5.59-.36-.49-.88-.77-1.35-1.12l-.68-.51c-.49-.57-1.04-1.02-1.59-1.54-.34-.32-.61-.66-.94-1.02l-.56-.6-1.73-2.26-1.38-2.09-1.11-2.25-.93-2.21-.72-2.63c-.09-.34.03-.73-.05-1.03-.18-.68-.08-1.2-.01-1.88l.09-1.01c.3-1.87,1.07-3.55,2.05-5.2.57-.96,1.11-1.85,1.85-2.71l1.68-1.93c.98-1.13,2.09-2.12,3.3-3.06l.82-.64,1.63-1.13c2.29-1.59,6.07-3.37,8.89-3.9,1.9-.36,3.74-.61,5.69-.43,1.21.11,2.41.25,3.55.61l1.5.46c.4-4.21,1.6-7.89,3.79-11.52l2.15-2.98c1-1.38,2.26-2.51,3.58-3.65l2.63-1.99,2.13-1.25c.65-.38,1.3-.73,2.04-.98,1.08.37,1.96.95,2.93,1.47,1.12.61,2.04,1.34,3.03,2.12,1.82,1.43,3.43,3.05,4.8,4.84l1.73,2.55,1.03,1.78c1.49,3.08,2.42,6.25,2.66,9.67l2.12-.65,3.18-.48h2.68c3.92.39,5.42,1.06,8.77,2.59l1.91,1.07,1.86,1.21,2.93,2.37,2.08,2.03.69.78.94,1.09,1.22,1.68,1.56,2.79c.6,1.08.88,2.28,1.06,3.49l.1.66-.02,2.28c0,1.26-.44,2.4-.85,3.62-.92,2.72-2.37,5.22-4.12,7.57l-1.09,1.27-.92,1.03-2.58,2.4-1.5,1.22c.85,1.58,1.6,3.13,2.01,4.82.3,1.26.64,2.44.73,3.73l.08,1.2v1.95c0,.37.06.77-.24,1.07s-.74.37-1.13.55c-2.2.97-4.45,1.8-6.91,1.93l-2.64.14-3.52-.17c-2.15-.1-6.29-1.52-8.33-2.53-1.48-.73-2.89-1.49-4.16-2.47l-2.56-1.97c-1.72-1.52-3.24-3.09-4.56-4.89l-1.03-1.41-1.96-3.32-.8-1.65ZM297.81,126.29c1.14.83,2.04,1.79,3.02,2.79l2.02-1.06c3.35-2.02,4.9-5.41,4.97-9.03.04-2.13.75-4.11,2.2-5.78l1.02-.93,2.03-1.2c.06-.88-.08-1.74-.26-2.61l-.24-1.18c-.38-1.9-.95-3.74-1.87-5.47l-.48-.9c-.87-1.64-1.84-3.14-3.06-4.58-.37-.44-.68-.83-1.09-1.26l-.81-.84c-.33-.34-.66-.63-1.03-.93l-2.28-1.85-.87-.52c-.79-.59-1.62-1.09-2.5-1.55-.6-.32-1.22-.26-1.78.05-.94.52-1.83,1.05-2.71,1.64l-1.13.76-1.43,1.14c-4.07,3.6-7.23,8.19-8.46,13.26-.27,1.11-.45,2.15-.6,3.29-.06.46-.24,1.09-.02,1.53l1.43.81c1.3.74,2.44,2.1,2.98,3.38.37.88.71,1.76.73,2.76.06,1.97.23,3.91,1.15,5.74.69,1.37,2.22,3.31,3.49,4l2.24,1.22,2.1-2.05.73-.55c.11-.08.37-.19.51-.1ZM273.93,138.31l2.75-1.21c.84-.37,1.66-.59,2.55-.87,3.59-1.15,7.26-1.88,11.06-2.11,1.38-.08,1.95-1.29,2.29-2.48-.03-.21-.44-.27-.6-.29-1.12-.48-2-1.12-3-1.79-1.88-1.51-3.57-3.24-4.7-5.29-.75-1.35-1.38-2.68-1.82-4.12-.6-1.97-1.06-4.45-1.09-6.45l-.03-2.16c-1.97-.8-3.38-1.17-5.56-1.31-.46-.03-.81-.11-1.3.01l-1.08.04c-1.65.17-3.16.57-4.7,1.05-.97.3-1.82.65-2.72,1.09l-1.81.9c-4.33,2.5-7.88,5.75-10.52,9.74-.62.94-1.19,1.83-1.55,2.88s-.68,2.13-.84,3.25c-.29,2.09.3,4.41,1.01,6.46.47,1.38,1.22,2.61,1.96,3.88,1.76,2.99,4.63,6.33,7.67,8.39.29-.63.66-1.03,1.03-1.5,1.44-1.84,3.15-3.37,5.14-4.75,1.84-1.27,3.73-2.44,5.85-3.38ZM333.5,147.98l1.22-.95,1.88-1.66c2.61-2.52,4.66-5.43,6.1-8.62.46-1.02.75-1.94,1.04-2.98.58-2.05.7-4.15.07-6.2-.29-.93-.52-1.77-1-2.64l-.82-1.5-1.08-1.53c-.71-1.01-1.47-1.93-2.36-2.81l-1.92-1.89-1.28-1.08-3.67-2.53-1-.5-1.78-.91c-.89-.45-1.84-.72-2.8-1.02l-.85-.26c-1.39-.42-2.78-.61-4.24-.66-.56-.02-1.1-.14-1.66.02-1.66.06-3.18.51-4.71,1.08-.16.03-.67.13-.66.32.11.87.03,1.66,0,2.51-.02.49,0,.91-.07,1.4-.35,2.78-1.06,5.46-2.38,8-.79,1.51-1.68,2.92-2.98,4.1l-2.1,1.9c-1.16.88-2.38,1.54-3.77,2.12l.53,1.17c.23.76.93,1.2,1.81,1.27l3.31.28c4.27.64,8.97,1.87,12.74,3.75l1.17.51,1.08.63c1.7.87,3.2,1.88,4.71,2.99l1.78,1.48c1.47,1.23,2.69,2.61,3.7,4.21ZM293.96,129.57c-1.43-.58-3.13-1.73-4.02-2.7-2.08-2.27-3.01-4.52-3.08-7.5-.04-1.52-.27-3.01-1.07-4.36l-.89-1.23c-.74-.78-1.6-1.38-2.61-1.88l.02,2.62c.48,4.99,1.63,8.79,5.26,12.72.78.85,1.66,1.52,2.61,2.21.85.61,1.76,1.09,2.86,1.39.37-.39.66-.79.93-1.27ZM309.79,124.8l.71-1.11.6-1.15c.93-1.79,1.39-3.67,1.73-5.61.29-1.67.44-3.27.31-5-2.48,1.19-3.84,3.14-4.35,5.59-.22,1.06-.13,2.08-.24,3.13-.13,1.2-.54,2.31-1.05,3.41-1.19,2.56-3.44,4.41-6.19,5.67.43.46.7.83.97,1.28,3.12-1.11,5.91-3.66,7.53-6.21ZM298.86,138.62l-.02-.7c-.02-.79-.21-1.51-.5-2.26l-.67-1.73c-.38-.98-.45-1.99-.27-3.03l.41-2.4c.07-.4.21-.81-.14-1.21-.96.55-1.71,1.24-2.34,2.05l-.72.94c-1.15,1.49-1.93,3.14-2.22,4.96-.39,2.47.5,5.16,2.69,6.68.58.4,1.31.59,1.99.72,1-.88,1.83-2.86,1.8-4.03ZM298.28,142.71c1.68-.54,3.18-1.51,3.92-3,.93-1.87.94-3.99.33-5.93l-.64-1.51c-.79-1.51-1.79-2.88-3.24-4.08l-.4,2.13c-.34,1.26-.23,2.47.27,3.67l.76,1.82c.77,2.1.48,4.29-.71,6.2-.14.22-.27.4-.29.7ZM327.5,163.3c2.97-.36,5.89-.91,8.43-2.37.14-2.21-.04-4.32-.6-6.44-.09-.76-.36-1.43-.62-2.15-.39-1.08-.78-2.16-1.49-3.14-1.51.91-2.88,1.86-4.48,2.44l-2.51.92c-1.78.65-4.39,1.11-6.27.88-4.12-.48-7.11-2.85-9.39-5.85l-.71-.94-.91-1.5c-.7-1.37-1.41-2.69-1.85-4.16l-.46-1.55c-.56-1.89-.83-3.6-2.93-4.84l.08,1.27c.09,1.47-.19,3.14-.93,4.45s-2.14,2.29-3.68,2.87c-.23.09-.38.21-.26.48l.59,1.33.77,1.63c1.52,3.21,3.76,6.05,6.35,8.65l.97.9c1.13,1.04,2.35,1.91,3.65,2.76,1.23.81,2.43,1.47,3.8,2.07s2.74,1.24,4.28,1.54l3.2.62.93.09,1.36.09c.44.03.96.04,1.42,0,.43-.03.82-.15,1.26-.06ZM259.48,160.92c1.34.79,2.64,1.31,4.09,1.65,1.31.31,2.58.58,3.93.7l.95.08h3.06c1.66-.01,3.18-.43,4.79-.8,1.26-.29,2.38-.77,3.55-1.26,7.95-3.34,13.97-10.46,16.79-17.83-.93-.27-1.74-.59-2.41-1.14s-1.31-1.07-1.69-1.81c-.99-1.79-1.29-3.74-.96-5.73-.34,0-.43.32-.61.47-.7.58-1.53,1.96-1.78,2.78l-.75,2.51c-.62,2.08-1.69,3.97-2.84,5.86l-2.1,2.65-1.31,1.23c-1.78,1.67-4.34,2.85-6.93,3.17-.72.09-1.34.04-2.06,0-1.51-.09-2.85-.46-4.25-.93-1.88-.63-3.6-1.4-5.25-2.43l-1.54-.97c-1.6,2.64-2.38,5.87-2.66,8.8v3ZM268.63,151.62c1.45.64,2.92.86,4.44,1.04.77.09,1.41.05,2.16,0,1.76-.13,3.25-.7,4.67-1.62,4.24-2.74,7-7.72,8.19-12.23.38-1.44,1.05-2.66,2.01-3.94l-3.72.47c-3.01.38-5.79,1.17-8.6,2.17-1.6.57-3.05,1.2-4.52,1.99l-1.88,1.01c-3.78,2.33-6.46,4.17-8.79,7.95.99.66,1.89,1.34,2.97,1.82l3.07,1.36ZM328.34,150.96c1.58-.68,3.03-1.47,4.44-2.49-.66-1.2-1.59-2.21-2.57-3.22-.92-.95-1.88-1.76-2.99-2.52-.8-.75-1.78-1.24-2.7-1.84-.64-.42-1.27-.76-1.97-1.12l-1.9-.97-3.34-1.36c-3.62-1.48-7.83-2.2-11.83-2.51l1.08,1.69.68,1.98c.57,2,1.23,3.94,2.24,5.79,1.07,1.96,2.37,3.71,4.05,5.27.71.66,1.54,1.13,2.38,1.67,1.15.75,2.52,1.18,3.96,1.28.8.21,1.56.12,2.36.01l2.03-.26c1.46-.31,2.75-.83,4.09-1.41Z"/>
  <path class="st0" d="M106.77,211.98c.47-13.11,9.72-22.9,21.76-23.23,5.39-.2,10.58,1.66,15.24,5.32,3.26,2.6,2.93,5.59.2,6.92-.73.4-1.4.27-1.6-.53-1.8-7.52-5.72-11.12-13.44-11.12-9.38,0-17.71,9.32-17.71,24.09,0,12.65,6.99,20.97,17.77,22.43,6.39.87,13.05-2.13,16.84-7.99.53-.8.87-1.13,1.13-1.07.2.07.4.4-.27,1.26-4.13,6.32-10.85,9.78-18.04,9.25-13.18-.93-22.23-11.12-21.9-25.36Z"/>
  <path class="st0" d="M243.15,192.75c0,.27-.4.27-.4,0,0-2-2.6-2.79-4.53-2.79h-10.72v42.93c0,1.73,1.33,2.86,3.33,2.86.27,0,.27.4,0,.4h-10.32c-.27,0-.27-.4,0-.4,2,0,3.33-1.13,3.33-2.86v-42.93h-11.45c-1.93,0-4.53.8-4.53,2.79,0,.27-.4.27-.4,0v-3.26l1.53.07h34.15v3.19Z"/>
  <path class="st0" d="M339.86,232.95v3.19h-30.75c-.27,0-.27-.4,0-.4,2,0,3.06-2.6,3.06-4.53v-38.4c0-1.73-1.33-2.86-3.33-2.86-.27,0-.27-.4,0-.4h10.32c.27,0,.27.4,0,.4-2,0-3.33,1.13-3.33,2.86v42.93h19.1c1.93,0,4.53-.8,4.53-2.79,0-.27.4-.27.4,0Z"/>
  <path class="st0" d="M387.99,192.75c0,.27-.4.27-.4,0,0-2-2.6-2.79-4.53-2.79h-20.43v18.9h10.45c1.93,0,4.53-.8,4.53-2.8,0-.27.4-.27.4,0v5.99c0,.27-.4.27-.4,0,0-2-2.6-2.79-4.53-2.79h-10.45v26.49h20.43c1.93,0,4.53-.8,4.53-2.79,0-.27.4-.27.4,0v3.19h-32.08c-.27,0-.27-.4,0-.4,2,0,3.06-2.6,3.06-4.53v-36.74c0-1.93-1.06-4.53-3.06-4.53-.27,0-.27-.4,0-.4h32.08v3.19Z"/>
  <path class="st0" d="M441.7,189.95c-2,0-4.79,1-6.12,2.26l-12.31,19.57v21.1c0,1.73,1.33,2.86,3.33,2.86.27,0,.27.4,0,.4h-10.32c-.27,0-.27-.4,0-.4,2,0,3.33-1.13,3.33-2.86v-20.9l-12.31-19.97c-1.2-1.4-2.73-2.06-4.59-2.06-.27,0-.27-.4,0-.4h10.78c.27,0,.27.4,0,.4-2,0-2.66.47-1.8,2l11.25,18.5,11.38-18.44c1.13-1.8-.27-2.06-2.26-2.06-.27,0-.27-.4,0-.4h9.65c.27,0,.27.4,0,.4Z"/>
  <path class="st0" d="M491.51,236.3c-2,0-4.4-.66-5.26-2.46l-17.24-43.73h-5.73c-.26,0-.26.4,0,.4,1.74,0,2.67,1.2,3.13,2.66-5.26,13.65-10.51,27.29-15.77,40.94-.25.64-.49,1.28-.74,1.92-1.99,5.17-6.24,9.12-11.53,10.78-.89.29-1.34.44-1.34.48.01.02.18,0,.52-.07,5.95-1.23,10.85-5.43,13.08-11.08.27-.68.54-1.35.81-2.03.81-2.12,2.21-5.73,3.49-9.01,1.42-1.58,7.7-7.89,16.01-6.89,1.93.23,3.81.86,5.6,1.83l.8,1.96c1.64,4.01,3.63,8.57,5.12,12.32.27,1.46-1.19,1.99-3.12,1.99-.27,0-.27.4,0,.4h12.18c.26,0,.26-.4,0-.4ZM455.4,223.89c.52-1.35,1.01-2.59,1.4-3.6l.24-.63.02-.05c.02-.05.04-.12.08-.2l.51-1.32c2.08-5.42,8.85-22.94,9.1-23.59,2.94,7.51,6.53,17.24,9.51,24.83-1.69-.85-3.45-1.4-5.26-1.62-7.42-.89-13.23,3.85-15.6,6.18Z"/>
  <path class="st0" d="M300.07,236.42c-2,0-4.39-.67-5.26-2.47l-17.24-43.72h-5.72c-.27,0-.27.4,0,.4,1.73,0,2.66,1.19,3.13,2.66l-15.78,40.93c-.86,1.67-3.26,2.2-5.19,2.2-.27,0-.27.4,0,.4h8.92c.26,0,.26-.4,0-.4-2,0-3.4-.6-2.93-2.2,1.23-3.2,2.46-6.4,3.69-9.59,1.36-1.52,7.68-7.93,16.04-6.93,1.84.22,3.63.81,5.34,1.7l.36.91h-.03l.16.4,5.46,13.71c.26,1.47-1.2,2-3.13,2-.27,0-.27.4,0,.4h12.18c.26,0,.26-.4,0-.4ZM279.79,217.2c-7.44-.9-13.28,3.89-15.63,6.21.73-1.88,1.47-3.76,2.2-5.65h.01l8.94-23.15,9.48,24.07c-1.61-.77-3.29-1.28-5.01-1.49Z"/>
  <path class="st0" d="M203.42,235.74c-2,0-4.39-.67-5.26-2.47l-17.24-43.72h-5.72c-.27,0-.27.4,0,.4,1.73,0,2.66,1.19,3.13,2.66l-15.78,40.93c-.86,1.67-3.26,2.2-5.19,2.2-.27,0-.27.4,0,.4h8.92c.26,0,.26-.4,0-.4-2,0-3.4-.6-2.93-2.2,1.23-3.2,2.46-6.4,3.69-9.59,1.36-1.52,7.68-7.93,16.04-6.93,1.84.22,3.63.81,5.34,1.7l.36.91h-.03l.16.4,5.46,13.71c.26,1.47-1.2,2-3.13,2-.27,0-.27.4,0,.4h12.18c.26,0,.26-.4,0-.4ZM183.13,216.53c-7.44-.9-13.28,3.89-15.63,6.21.73-1.88,1.47-3.76,2.2-5.65h.01l8.94-23.15,9.48,24.07c-1.61-.77-3.29-1.28-5.01-1.49Z"/>
</svg>